<svg width="156" height="156" viewBox="0 0 156 156" fill="none" xmlns="http://www.w3.org/2000/svg">
<rect x="77.7109" y="7.70711" width="99" height="99" transform="rotate(45 77.7109 7.70711)" fill="#F5F3EF" stroke="white"/>
<g clip-path="url(#clip0_510_2252)">
<path d="M55.6816 75.9178V75.6728L55.7905 75.455L55.8994 75.2917L56.0628 75.0194L56.3078 74.7472L56.5256 74.5294L56.7706 74.3388L57.0972 74.1211L57.4239 73.9577L57.805 73.7672L58.2406 73.6038L58.6217 73.4405L59.0301 73.3044L59.4656 73.1955L59.8468 73.0594L60.2279 72.9505L60.6635 72.8416L61.0174 72.7327L61.3713 72.6238L61.7796 72.5149L62.188 72.4332L62.5963 72.2971L63.0319 72.1882L63.5763 72.0249L63.9302 71.916L64.393 71.7799L64.9103 71.6165L65.3458 71.4532L65.8631 71.2354L66.3531 71.0449L66.952 70.7726L67.6053 70.4732L67.9865 70.2554L68.5309 69.9832L69.0482 69.6565L69.4565 69.357L69.8649 69.0303L70.246 68.7309L70.5727 68.4587L71.0082 68.0775L71.4166 67.6147L71.8521 67.152L72.206 66.6619L72.4783 66.2264L72.8322 65.6547L73.1589 65.0558L73.4039 64.5113L73.6216 64.0485L73.785 63.5585L73.9483 63.0685L74.1117 62.4968L74.3022 61.789L74.4383 61.0268L74.5472 60.2917V58.7945L74.4383 58.1411L74.3022 57.2972L73.9483 55.7727L73.785 55.446C73.4402 55.0377 72.5545 53.6221 71.7705 51.2265M71.7705 51.2265C71.5346 51.0178 71.0137 50.4751 70.8177 49.9742V48.3408L70.7088 48.0141L70.0282 46.2991C69.9556 46.1085 69.8322 45.6675 69.9193 45.4279L70.0282 45.2102H70.2732L70.4365 45.4279M71.7705 51.2265C71.5527 50.878 71.3349 48.8127 71.2532 47.8236M70.4365 45.4279C70.5818 46.0541 70.9483 47.4098 71.2532 47.8236M70.4365 45.4279L69.6471 43.359L69.5382 42.869V42.4334C69.5164 42.3463 69.7106 41.7075 69.8104 41.3989V41.0178L69.3204 39.4389C69.2569 39.2937 69.1135 38.8835 69.0482 38.4044C68.9828 37.9253 69.0391 37.261 69.0754 36.9888L69.1843 36.281L69.3748 35.2465C69.4112 35.0106 69.5001 34.4843 69.5654 34.2665C69.6307 34.0487 69.9919 33.4498 70.1643 33.1776V34.1031C70.1208 34.1031 70.2551 34.4479 70.3277 34.6204H70.4365L70.7632 34.2665L70.8449 34.3209L71.0082 35.2465L71.1443 35.5732L71.2805 35.7365C71.344 35.7274 71.471 35.742 71.471 35.8726C71.471 36.0033 72.6144 36.1993 73.1861 36.281M71.2532 47.8236V46.6802L71.3621 45.7002L71.5799 44.1757L71.7433 42.6784L71.8794 41.2356L71.961 40.2283L72.0699 39.5205L72.206 38.9216C72.442 38.1685 72.9683 36.5859 73.1861 36.281M73.1861 36.281C73.7487 36.2901 74.863 36.2647 74.8195 36.0904V35.8726H74.3022C74.0119 35.8001 73.3276 35.5514 72.9138 35.1376L71.961 34.212L71.6071 33.7492L71.4438 33.4498L71.3077 33.1231C71.226 32.9144 71.0681 32.4752 71.0899 32.3881V31.8436L71.1443 31.4625L71.3077 30.9997L71.5527 30.428L71.8249 29.9925L72.1244 29.6113L72.7505 28.8763L73.1044 28.5496L73.4311 28.2774L73.7033 28.0596L74.2478 27.7057L74.6017 27.5152L74.9556 27.3518L75.3367 27.1885L75.9084 26.9707L75.9628 26.9979L75.9084 27.1068L75.3367 27.624L75.01 28.0052L74.8195 28.223L74.6289 28.5496L74.4383 28.8763L74.2206 29.3119L74.2478 29.3663L74.4383 29.1485L74.765 28.7674L75.1734 28.223L75.5817 27.8691L75.8812 27.6513L76.2623 27.3518L76.6434 27.1068L76.9429 26.9707L77.2968 26.8346L77.569 26.7529H77.7868H77.9501L78.059 26.8074L78.1951 26.8346L78.6579 26.6712L79.039 26.5623L79.3929 26.5079L79.7196 26.4262L80.0463 26.3718L80.5091 26.3173H81.1352M81.1352 26.3173V26.154L81.0263 26.1268H80.1007L79.7741 26.1812L79.284 26.2357H78.5762L78.1679 26.154L77.7323 26.0179L77.2695 25.8545V25.7457L77.4329 25.6912L78.059 25.419L78.7124 25.1195L79.4202 24.9017L79.7741 24.8201L80.1552 24.7656H81.0263L81.3802 24.8473C81.5254 24.9199 81.8376 25.1304 81.9247 25.3918C82.0118 25.6531 81.9973 25.8636 81.9791 25.9362V26.0451M81.1352 26.3173H81.7613M82.1425 26.3173H81.7613M81.7613 26.3173L81.9791 26.0451M81.9791 26.0451C82.2241 25.8455 82.7577 25.4244 82.9319 25.3373C83.1062 25.2502 83.4401 25.1558 83.5853 25.1195L84.1298 25.0106L84.4292 24.9562H85.4637L85.8448 25.0106L86.1987 25.0923L86.7432 25.2284L87.5054 25.4734L88.3766 25.8818L89.166 26.3173L90.1733 27.0796L91.0172 27.9235L91.2894 28.3046L91.5889 28.6585L91.8883 29.1213L92.1606 29.5569L92.5961 30.3191L93.1406 31.6258L93.4673 32.3881L93.6851 33.232L94.039 34.4026L94.3656 35.8454L94.529 36.6621L94.6379 37.4788L94.7468 38.1866L94.8829 39.1939L94.9101 39.575L94.9645 40.31L94.9918 40.7728L95.0462 41.6984L95.0734 42.624L95.1279 44.2029V47.143V49.4025L95.0734 51.2265L95.019 52.1248L94.9645 53.5676L94.8557 55.2282L94.7468 56.78L94.6379 57.8689L94.5834 58.2228L94.529 58.8217C94.411 59.3843 94.1533 60.5313 94.0662 60.6184L93.6851 61.4623L93.3584 62.1157L93.0045 62.6601L92.7595 63.0413C92.5508 63.3589 92.1225 63.9995 92.0789 64.0213C92.0353 64.0431 91.7341 64.4478 91.5889 64.6474L90.6633 65.7636L88.9755 67.7781C88.7758 68.0412 88.382 68.5839 88.4038 68.6492L87.8049 69.7654L87.1787 71.2082L86.7704 72.4332L86.5526 73.0594L86.3621 73.6583L86.2804 74.0938L86.1443 74.5566L85.9809 75.2644L85.872 75.8089L85.7631 76.3261L85.6543 76.8978L85.5726 77.4423L85.4092 78.259M85.4092 78.259L85.9265 76.7889L86.0626 76.3806L86.2259 75.9995L86.3621 75.5367L86.5526 75.0739L86.7704 74.4477L86.961 73.7944L87.1515 73.2499L87.2604 72.9232L87.4238 72.5693L87.6143 72.161L87.8593 71.5621L88.1043 70.9632L88.4855 70.2009L88.7577 69.6837L89.0027 69.2481L89.2205 68.9215L89.4655 68.4859L89.7377 68.0775L90.1188 67.5603L90.4727 67.0975L90.9355 66.5258L91.3439 66.0358L91.6978 65.6275L93.4945 63.6946L94.6379 62.4424L95.3729 61.6257L96.3801 60.564L96.5163 60.4823L96.5707 60.564L96.5163 61.1357L96.4346 62.2518L96.2985 63.3407L96.1896 64.4296L95.8357 67.2064L95.3457 70.5821L95.1007 71.6438L94.9373 72.2154L94.7468 72.6238L94.529 73.0866L94.3112 73.4133L93.9845 73.8761L93.5217 74.4477L92.8684 75.1555L92.2967 75.6728L91.7794 76.0811L91.1261 76.4895L90.5 76.8434L90.0644 77.0884L89.4655 77.3334L89.0571 77.4967L88.6488 77.6328L88.0227 77.7962L87.3421 77.9595L86.6071 78.0956C86.3348 78.1773 85.7141 78.3243 85.4092 78.259ZM77.1879 55.0377L78.6307 54.3299L78.9574 54.1665L79.2024 54.0849L79.4202 54.0304H79.6107L79.8285 54.1665L79.9646 54.3299H80.2096L80.373 54.221L80.5363 54.0849L80.7541 53.9488H81.0535L81.4074 54.0304L81.9247 54.221L83.0136 54.6566M77.1879 55.0377L78.4401 55.6638L78.9574 55.9088L79.5563 55.9905H80.9447L81.2986 55.9088L81.4619 55.7999L82.4147 55.1466L83.0136 54.6566M77.1879 55.0377L77.7051 54.9832H77.8684L78.3312 55.1466H78.5762L78.8757 55.0921L79.4202 54.9832H80.4819H81.7613L82.4691 54.8743L83.0136 54.6566M81.1624 51.6076L80.4274 51.9343L80.1552 51.9887H79.3657L78.9574 51.9343L78.7124 51.7709L78.4674 51.4715V51.0087L78.7668 50.0559L78.8213 49.8381V48.1502L78.7668 47.5513L78.6851 46.9252M78.6851 46.9252L78.4674 45.8907L78.2496 45.1557M78.6851 46.9252L78.2496 45.1557M78.2496 45.1557L78.1679 44.9107M78.1679 44.9107L77.4057 44.7474L76.4528 44.5568L75.5273 44.339L74.9284 44.2573C74.7197 44.2301 74.2369 44.1757 73.9755 44.1757C73.7142 44.1757 73.4855 44.2301 73.4039 44.2573L73.1044 44.339L72.8866 44.4207L72.6961 44.5568L72.4238 44.8018L72.0972 45.074H72.0427L72.4783 44.2573L72.6961 43.8762L72.9411 43.5223L73.1044 43.359L73.3222 43.2501L73.5672 43.1412L73.8667 43.0595H74.765L75.2823 43.1412L75.6634 43.2501L76.2351 43.4134L76.9973 43.604L77.6779 43.7946L78.059 43.9307L78.1679 44.0396V44.4751V44.9107ZM77.4057 47.8236L77.1334 47.9869L76.8884 48.0958L76.6979 48.1502L76.4256 48.2319H76.2351H75.3095L75.01 48.1502L74.6561 48.0141L74.3567 47.878L74.1117 47.7147L74.0028 47.6058M74.0028 47.6058L73.9483 47.7147L73.8122 47.8236L73.6761 47.878H73.295L73.1316 47.8236L72.9683 47.6602M74.0028 47.6058L73.8986 47.4969M73.8986 47.4969L73.4039 46.9797M73.8986 47.4969L73.7578 47.6058L73.5672 47.6602H73.295L73.0772 47.4969" stroke="#B7A37A" stroke-width="0.491926"/>
<path d="M85.3573 27.3512L86.0379 27.7051L86.4462 28.0045L86.7457 28.1679H86.9634V28.0862L86.8273 27.8684L86.5006 27.4873L86.3373 27.3239L86.0651 26.9156L85.7656 26.3167L85.5478 25.99L85.3028 25.7178L85.085 25.5817L84.8945 25.5272L84.6767 25.5H83.7511L83.4244 25.5817L83.2067 25.6361L82.9072 25.7722L82.5805 25.9083L82.2538 26.0445L81.7638 26.3167H82.1177L82.4172 26.3439L82.8255 26.4528L83.5333 26.6161L84.0778 26.8339L84.5678 26.9973L85.3573 27.3512ZM85.3573 27.3512L85.7112 27.6778V27.814L85.6295 27.9229L85.4389 28.0317L84.9489 28.3312L84.0778 28.9029L83.5606 29.3657L83.125 29.774L82.7983 30.2096L82.635 30.5363L82.4444 30.9718L82.3083 31.6252V32.4691L82.3627 32.8502L82.5261 33.3402L82.6894 33.9119V34.2658L82.6622 34.4019L82.5261 34.7014L82.4716 34.8647V34.9192M82.4716 34.9192H82.6077M82.4716 34.9192L82.3083 35.1097H81.7094H81.3555L81.056 35.137L80.811 35.1914L80.6205 35.2459L80.321 35.4092L79.9943 35.5453L79.7493 35.627L79.4226 35.6814L79.2865 35.7087H78.2521L78.0887 35.6814L77.5443 35.5453L76.9181 35.3003L76.3464 35.0009L75.8564 34.5925L75.4481 34.1842L75.0397 33.5308L74.8219 33.0136L74.7131 32.5236L74.5769 32.1152L74.5497 31.7341L74.5769 31.0807L74.6586 30.5363L74.7675 29.8829L74.8492 29.5562L74.9853 29.2568L75.1486 28.9301L75.3936 28.6034L75.7203 28.3312L76.2375 27.9229L76.8637 27.5417L77.7348 27.0789L78.1976 26.8339M82.6077 34.9192L82.7439 34.8103L82.88 34.7014L83.0161 34.5925L83.2067 34.3203L83.37 33.9119L83.4244 33.7214L83.4789 32.578L83.6422 31.9246L83.8056 31.3802L84.0778 30.8902L84.4589 30.2913L84.9489 29.774L85.5206 29.2023C85.7384 29.0118 86.1849 28.6252 86.2284 28.6034C86.272 28.5817 86.3736 28.5399 86.419 28.5218H86.6095H86.7457L86.9634 28.6851L87.3718 29.0934L87.9707 29.7196L88.6785 30.4818L89.3591 31.3802L89.8763 32.1152L90.0941 32.4691L90.3119 32.7141L90.693 33.1497L90.8291 33.4491V34.0208L90.7474 34.7286L90.6386 35.0825L90.4208 35.9264L90.2302 36.6342L89.6585 38.1587L89.4407 38.7849L89.0868 39.411L88.5968 40.2277L88.2157 40.7449L87.9979 41.1533L87.889 41.4799M82.6077 34.9192L82.5261 35.1097L82.7711 35.1914L83.2883 35.4092L83.8056 35.8448L84.35 36.3348L84.9217 37.0154L85.2484 37.6415V38.0771L85.1123 38.5399L85.0578 38.7304V38.921C85.1304 39.0208 85.2811 39.2259 85.3028 39.2477C85.3246 39.2694 85.566 39.4382 85.684 39.5199L86.0651 39.7104L86.6368 40.0099L87.0996 40.3638L87.2629 40.5544L87.5351 40.9083L87.7801 41.2349L87.889 41.4799M87.889 41.4799H87.9979L88.1613 41.3711L88.4879 40.9899L89.4407 39.6832L89.7674 39.1932L90.0396 38.7304L90.203 38.3765L90.4208 37.8865L90.5841 37.4237L90.8836 36.4165L90.9652 36.0353L91.0741 35.4909L91.1558 35.1914L91.2647 35.137L91.4008 35.1914L91.5097 35.4092L91.5914 35.8992V36.2531L91.5097 36.852L91.3191 37.587L91.1558 38.3221L91.0741 38.7849V39.2477L91.1558 39.4654L91.3191 39.6832L91.4552 39.9555V40.8266L91.3191 41.4799L91.2102 41.8883L91.1013 42.1877L90.938 42.5961L90.7202 43.0317L90.2847 43.5489L89.7674 44.2023M87.889 41.4799L88.4063 42.4872L88.5696 42.8955L88.6785 43.1406L88.7329 43.6306L88.6785 44.5562L88.5696 45.2095L88.4063 45.5634L88.4607 45.6451L89.7674 44.2023M89.7674 44.2023V44.4745L89.9308 44.9645L90.0124 45.5634V46.2712L89.9308 46.8157L89.6585 47.6868L89.1957 48.6941L88.7602 49.7013L88.4607 50.3274V49.9191L88.4063 49.1569L88.3518 48.3946L88.2701 47.6868L88.1613 47.0335L87.9979 46.5162L87.8074 45.9718L87.5896 45.4001L87.2357 44.7467L86.8818 44.1478L86.4734 43.5489L86.1467 43.1406L85.9017 42.8411L85.3028 42.0789L84.4861 41.1533L83.7511 40.2821L83.5606 40.0099L83.3428 39.6016L83.2339 39.411L83.0978 39.0571L82.9889 38.676L82.9344 38.3493L82.8255 38.0226H82.7439L82.5805 38.1315L82.3627 38.4854L82.145 38.921L81.8999 39.5199L81.3555 40.5271L81.0016 41.2077L80.4299 42.2422L80.1577 42.95L80.0488 43.2767L79.9671 43.685L79.8854 44.0389V44.8012L79.9671 45.2367L80.076 45.8901L80.2393 46.3801L80.5388 47.1696L81.1649 48.4218L81.7366 49.4291L82.39 50.5452L82.7711 51.2258L83.2067 52.0153L83.5061 52.7231L83.7511 53.3492L83.86 53.812L84.0233 54.6287L84.0778 55.2004V56.616L83.9961 57.4599L83.8328 58.0588L83.7239 58.2221L83.5333 58.4127L83.1794 58.6577L82.39 59.2294L81.6277 59.665L81.0833 59.8555L80.5932 60.0189H79.8854L79.4499 59.91L78.9599 59.665L78.1432 59.2294L77.4354 58.7938L76.8092 58.4127L76.4009 58.0588L75.802 57.4599L75.2847 57.0515L74.7947 56.616L74.3319 56.0987L73.8691 55.5815" stroke="#B7A37A" stroke-width="0.491926"/>
<path d="M83.8308 58.0867L83.7219 58.4678L83.5586 59.0123L83.3136 59.6656L83.0958 60.2373L82.6058 61.4351L82.3336 62.1702L81.898 63.4224L81.6258 64.3208L81.4624 65.0558L81.2719 65.8725L81.0541 67.0431L80.918 68.377V69.8471V70.1465L81.0541 70.7182L81.1902 71.3443L81.4624 72.161L82.0341 73.3861L82.4152 74.2844L82.9325 75.2645L83.3408 75.9723L83.8581 76.8434L84.4297 77.7145L84.7836 78.0957L85.0014 78.2318L85.2737 78.2862H85.437M85.437 78.2862L85.3553 78.0957M85.437 78.2862L85.0831 78.0957L84.6475 77.5784L84.4297 77.2245L84.212 76.789L83.8308 75.8906L83.3408 74.8561L82.9325 73.8216L82.633 73.0322L82.4697 72.3244L82.3063 71.5893L82.2247 70.6638L82.143 69.956V68.1048L82.2519 67.1792L82.388 66.6075L82.6058 65.8725L82.7964 65.328L83.0414 64.6747L83.368 64.0486L83.7219 63.3408L84.1575 62.5513L84.6475 61.7074L85.192 60.7818L85.7909 59.7745L86.3354 58.8217L86.7165 58.0867L87.0432 57.4878L87.3426 56.8072L87.5876 56.2628L87.6965 55.9089L87.9415 55.1194L88.1049 54.4933L88.2138 53.8671L88.2954 53.2138L88.3499 52.6149L88.4043 51.6076L88.4588 50.3281M85.3553 78.0957L85.2737 77.524V76.5439L85.3553 75.4006L85.437 74.2844L85.5731 73.495L85.682 72.9233L85.8998 71.9705L86.0631 71.5077L86.172 71.2082L86.417 70.5549L86.7982 69.7654L87.2882 68.8398L88.1321 67.4514L88.6765 66.6075L89.2755 65.7364L90.0921 64.5386L90.4188 64.0213L90.7727 63.4224L91.045 62.8507L91.29 62.3063L91.5622 61.6257L91.9705 60.319L92.1067 59.6656L92.2155 59.1484L92.3244 58.4678L92.4061 57.5422L92.4878 56.5894L92.5694 55.6911V55.1466V54.5749M85.3553 78.0957L85.0014 77.1701L84.702 76.0812L84.3481 74.965L84.1847 73.9578L84.0486 73.2227L83.9397 72.3244L83.8581 71.7255V71.2082V68.8398L83.9397 68.1048L84.0486 67.6148L84.1303 67.2064L84.2664 66.7164L84.457 66.0903L84.7836 65.2191L85.192 64.3752L85.4642 63.8308L85.9542 63.0141L86.417 62.3063L87.0704 61.5168L87.6965 60.6729L88.4315 59.7745L89.0304 59.0667L89.8199 58.1956L90.3099 57.5422L91.2355 56.4261L91.8616 55.555L92.3244 54.9833L92.5694 54.5749M92.5694 54.5749L92.7056 53.7855L92.8145 53.3771L92.9506 53.0232L93.1411 52.5604L93.3317 52.2337L93.5223 52.1521H93.6311L93.7673 52.2337V52.3971V52.7782L93.6311 53.0232L93.4406 53.3771L93.1411 53.7855L92.8145 54.2482L92.5694 54.5749Z" stroke="#B7A37A" stroke-width="0.491926"/>
<path d="M85.4379 78.3415L85.0296 78.641L84.5123 78.9677L83.7501 79.4577L82.9062 79.8388L81.79 80.2744L80.4289 80.6011L79.3672 80.7372H78.2238L77.4071 80.6011L76.4271 80.356L74.9026 79.7571L73.242 78.7771L71.5542 77.7971L69.3491 76.5993L68.5868 76.1637L67.6613 75.837L67.0623 75.6737L66.5723 75.592H65.2656V75.4831L65.8373 75.2381L67.3618 74.8298L68.8046 74.5031L70.0024 74.2309L70.9825 74.0403L72.0714 73.877H73.0514L74.2492 74.0403L74.7393 74.2309L75.3926 74.5848L76.2365 75.102L77.2438 75.837L78.1149 76.4087L78.9861 76.9259L79.9389 77.3887L80.9461 77.8787L82.1439 78.3415L82.8245 78.5321L83.6412 78.641H84.349L85.4379 78.3415ZM85.4379 78.3415L84.6212 78.4232H84.349L83.9134 78.3415L83.3145 78.1782L82.7156 77.9604L81.8717 77.6065L80.9461 77.1165L79.9389 76.4087L79.1494 75.7553L78.4688 75.102L77.7882 74.2853L77.2438 73.3869L76.9171 72.8697L76.4815 71.8897L76.2365 71.2635L76.0732 70.7463L75.8826 69.9024L75.7193 68.3779V64.2944L75.801 62.661V61.9805L76.2365 62.2255L77.026 62.8516L77.6793 63.4233L78.251 63.9678L78.6049 64.5122L78.9316 65.0567L79.2038 65.7373L79.5033 66.6356L79.7211 67.5068L79.9661 68.7862L80.1022 69.8207L80.2655 70.9096L80.4017 71.7263L80.565 72.3525L80.8372 73.2236L81.3817 74.3942L81.8989 75.2653L82.2256 75.7553L82.7156 76.4087L83.1784 76.9259L83.8045 77.6065L84.349 77.9604L84.839 78.2599L85.0296 78.3143L85.3563 78.3361M85.4379 78.3415H86.5813L87.153 78.3143L87.888 78.1782L88.8136 77.9604L89.6031 77.7154L90.1747 77.416L91.7809 76.7354L92.652 76.4087L93.5232 76.1909L94.3943 76.0548H96.1094L98.0694 76.2998L99.2672 76.5448L99.8389 76.6537V76.7354L98.2872 77.7154L96.8988 78.6682L96.4905 78.886L95.8099 79.131L94.6938 79.4577L93.8226 79.621L92.897 79.7571H89.9842L88.9225 79.621L88.1602 79.4577L87.3163 79.2127L85.9279 78.7771L85.4379 78.5321L85.3563 78.3361M85.4379 78.3415L85.3563 78.3361" stroke="#B7A37A" stroke-width="0.491926"/>
</g>
<path d="M55.8399 115.607C55.8342 115.523 55.8092 115.434 55.8259 115.355C56.2224 113.463 56.5816 111.562 57.0337 109.684C57.5535 107.527 58.4786 105.525 59.5493 103.589C59.6491 103.409 59.739 103.222 59.8336 103.039C59.8102 103.002 59.7863 102.965 59.7629 102.929C59.5394 103.039 59.3019 103.127 59.094 103.261C57.5608 104.247 56.2235 105.445 55.1471 106.925C55.0473 107.062 54.9096 107.172 54.7895 107.294C54.736 107.262 54.6824 107.23 54.6289 107.198C54.6913 106.986 54.7121 106.748 54.8233 106.566C55.8415 104.896 57.2442 103.63 58.964 102.713C60.0274 102.146 61.1438 101.748 62.3689 101.753C64.202 101.761 65.428 102.932 65.5455 104.755C65.6105 105.757 65.4239 106.719 65.0798 107.646C64.2597 109.852 63.123 111.867 61.3403 113.453C60.1293 114.531 58.7478 115.198 57.0701 115.048C56.566 115.003 56.1039 115.036 55.9548 115.711C55.9163 115.676 55.8784 115.642 55.8399 115.607ZM64.7061 105.064C64.6744 105.052 64.6422 105.04 64.6105 105.028C64.5715 104.703 64.5538 104.374 64.4883 104.055C64.2831 103.051 63.5305 102.257 62.518 102.207C61.8751 102.175 61.2156 102.422 60.5685 102.567C60.4812 102.586 60.359 102.74 60.3621 102.828C60.3871 103.602 59.9562 104.222 59.6532 104.871C58.251 107.876 57.2707 111.023 56.4199 114.217C56.2988 114.672 56.3607 114.758 56.8191 114.739C58.2063 114.679 59.3866 114.124 60.3689 113.164C61.9926 111.576 63.1656 109.685 63.966 107.57C64.2732 106.758 64.4629 105.901 64.7061 105.064ZM64.8361 106.298C65.1926 105.638 65.1968 104.646 64.8361 104.319V106.298Z" fill="#B7A37A"/>
<path d="M105.21 94.6295C105.02 94.7656 104.878 94.9013 104.71 94.9808C104.246 95.2001 103.787 95.5109 103.297 95.5769C102.369 95.7027 101.864 94.9574 102.197 94.0791C102.603 93.0079 103.806 92.3348 104.938 92.5458C106.108 92.7636 106.117 92.7636 106.104 93.9793C106.1 94.4086 106.031 94.8374 105.996 95.2672C105.987 95.3763 105.994 95.4865 105.994 95.698C106.747 95.3763 107.42 95.078 108.102 94.8041C108.317 94.7178 108.558 94.6975 108.787 94.6466C108.816 94.7033 108.844 94.7594 108.872 94.816C108.742 94.9283 108.625 95.064 108.478 95.1492C107.796 95.5458 107.12 95.96 106.412 96.3061C105.876 96.5676 105.624 96.9683 105.48 97.5239C104.99 99.4147 104.425 101.292 103.367 102.951C102.902 103.679 102.283 104.335 101.635 104.912C100.913 105.556 100.039 105.671 99.1436 105.184C98.6872 104.936 98.4424 104.542 98.3775 104.043C98.2668 103.192 98.4118 102.382 98.8405 101.631C99.7324 100.069 101.016 98.8752 102.459 97.8451C103.138 97.3607 103.858 96.935 104.57 96.4984C105.146 96.1445 105.436 95.3987 105.21 94.6295ZM98.8541 103.683C98.8541 103.773 98.8515 103.862 98.8546 103.951C98.892 104.93 99.7023 105.424 100.57 104.975C100.884 104.813 101.189 104.606 101.446 104.364C103.396 102.535 104.144 100.099 104.804 97.6237C104.825 97.5447 104.774 97.395 104.712 97.3602C104.647 97.3243 104.513 97.3664 104.433 97.4137C102.683 98.436 101.055 99.6091 99.8067 101.235C99.2548 101.954 98.8385 102.738 98.8541 103.683ZM104.951 92.9585C104.166 92.9377 103.037 93.9704 102.981 94.6861C102.952 95.0603 103.153 95.0733 103.431 94.9652C104.161 94.6814 104.722 94.1851 105.176 93.564C105.258 93.4528 105.297 93.2449 105.248 93.1243C105.208 93.0245 105.01 92.9881 104.951 92.9585Z" fill="#B7A37A"/>
<path d="M43.2314 96.4972C42.907 96.3886 42.6742 96.3501 42.4835 96.2389C41.7496 95.8112 41.2246 95.1953 40.9393 94.3897C40.6415 93.5477 40.3546 92.7021 40.0615 91.8591C40.0173 91.7328 39.9908 91.5888 39.9107 91.489C39.8 91.3502 39.6467 91.2463 39.5116 91.1273C39.4087 91.2764 39.2424 91.4142 39.2133 91.5768C39.0126 92.6896 38.8474 93.8086 38.6571 94.9234C38.5547 95.5237 38.4368 96.1225 38.2975 96.7155C38.2694 96.835 38.1114 96.9239 38.0137 97.0273C37.9181 96.899 37.7445 96.7727 37.7403 96.6417C37.7169 95.8813 37.6863 95.1163 37.744 94.359C37.9877 91.1787 38.9544 88.2069 40.4336 85.3956C40.6966 84.8961 41.0334 84.4351 41.3437 83.9611C41.4159 83.8504 41.5032 83.7314 41.6129 83.6675C41.7158 83.6077 41.8582 83.6155 41.9835 83.5937C41.997 83.7153 42.0567 83.8561 42.0162 83.9564C41.8598 84.3421 41.6519 84.7069 41.4985 85.0941C40.8671 86.6835 40.246 88.277 39.6301 89.8726C39.5703 90.027 39.5724 90.2058 39.5298 90.4771C39.8089 90.3373 39.9949 90.2557 40.1696 90.1548C42.0432 89.0733 43.5505 87.5671 44.9959 85.9886C45.459 85.4824 45.9288 84.9814 46.4148 84.497C46.54 84.3722 46.7386 84.3208 46.9605 84.3151C45.2625 87.0052 43.1446 89.2385 40.2127 90.6803C41.2257 91.6782 41.3811 92.9718 41.8951 94.1002C42.2241 94.8237 42.6789 95.49 43.0765 96.1828C43.1113 96.2431 43.1383 96.308 43.2314 96.4972ZM39.0137 89.9038C38.3313 91.7317 38.0527 93.6267 38.0506 95.569C38.3718 93.6807 38.6925 91.792 39.0137 89.9038Z" fill="#B7A37A"/>
<path d="M93.8423 95.8501C93.4515 96.4348 92.937 96.8745 92.2223 97.0216C91.8694 97.0938 91.5929 96.8688 91.4869 96.559C91.3247 96.085 91.1558 95.5897 91.1314 95.0965C90.9453 91.3788 92.0544 88.0727 94.4182 85.2038C94.716 84.842 95.149 84.5224 95.585 84.3592C96.4135 84.0489 96.9914 84.6237 96.7435 85.4735C96.6079 85.9402 96.4 86.3966 96.1604 86.8207C95.1453 88.6148 94.0487 90.3466 92.5752 91.8232C92.279 92.1199 92.16 92.6771 92.1194 93.1287C92.0368 94.0591 92.0181 95.0008 92.0565 95.9343C92.0862 96.6541 92.3065 96.7269 92.9276 96.3345C93.0783 96.2389 93.2213 96.1307 93.3668 96.0263C93.4962 95.9332 93.6241 95.8376 93.7524 95.743C93.7826 95.7789 93.8122 95.8142 93.8423 95.8501ZM92.6438 91.0602C92.7972 90.9136 92.9021 90.8362 92.9785 90.7364C93.3418 90.265 93.7478 89.817 94.045 89.3066C94.7155 88.1543 95.3444 86.9761 95.9582 85.7921C96.072 85.5717 96.0356 85.2739 96.0746 84.9668C94.9442 85.2999 92.4697 89.7286 92.6438 91.0602ZM92.4131 89.5498C91.779 90.3159 91.2156 93.373 91.5207 94.1298C91.6277 93.3434 91.6969 92.5768 91.844 91.8247C91.9936 91.0586 92.2202 90.3076 92.4131 89.5498Z" fill="#B7A37A"/>
<path d="M89.3063 114.807C89.4835 114.696 89.6379 114.628 89.7553 114.521C90.5599 113.787 91.3546 113.042 92.1576 112.306C92.3119 112.164 92.4892 112.047 92.656 111.918C92.6939 111.952 92.7319 111.986 92.7698 112.021C92.6815 112.158 92.6108 112.312 92.5021 112.431C91.6503 113.371 90.799 114.311 89.9294 115.234C89.6763 115.502 89.379 115.771 88.9508 115.613C88.5152 115.452 88.3832 115.081 88.3271 114.66C88.1249 113.142 88.484 111.697 88.9284 110.273C89.2164 109.352 89.5999 108.461 89.9315 107.554C89.9788 107.424 89.9741 107.274 89.9934 107.134C89.8504 107.126 89.7034 107.091 89.5661 107.114C88.8177 107.238 88.0724 107.378 87.325 107.504C87.1847 107.528 87.0371 107.507 86.8926 107.507C86.8765 107.469 86.8599 107.43 86.8438 107.391C86.9763 107.311 87.1 107.19 87.2434 107.157C87.996 106.981 88.7476 106.785 89.5116 106.681C90.1321 106.597 90.6124 106.417 90.9076 105.812C91.0531 105.515 91.3036 105.238 91.5734 105.043C91.7371 104.925 92.0271 104.981 92.2605 104.959C92.2568 105.142 92.3041 105.346 92.2407 105.505C91.9372 106.267 91.9273 106.274 92.7412 106.225C93.6627 106.17 94.5827 106.086 95.5042 106.025C95.6866 106.013 95.8721 106.048 96.0561 106.061C96.0629 106.117 96.0691 106.173 96.0759 106.229C95.7516 106.296 95.4298 106.383 95.1024 106.426C94.0988 106.559 93.0895 106.653 92.091 106.813C91.8514 106.852 91.5443 107.038 91.4377 107.245C90.3639 109.322 89.629 111.517 89.2844 113.835C89.2496 114.069 89.26 114.311 89.2553 114.55C89.2538 114.606 89.2766 114.662 89.3063 114.807ZM90.6706 107.123C89.9939 107.693 88.5147 112.192 88.7309 112.971C89.3598 111.076 90.0162 109.097 90.6706 107.123Z" fill="#B7A37A"/>
<path d="M80.7574 96.2091C81.8265 95.234 82.8956 94.259 83.9647 93.284C84.0073 93.3224 84.0494 93.3614 84.092 93.3999C84.0052 93.5402 83.9377 93.6977 83.829 93.8183C82.999 94.7361 82.1638 95.6504 81.3213 96.5573C81.1815 96.7075 81.0146 96.8484 80.8338 96.9429C80.2792 97.233 79.7247 96.813 79.6508 96.0454C79.5407 94.9056 79.6405 93.7736 79.9705 92.6847C80.3494 91.4348 80.8187 90.2118 81.2418 88.9748C81.2911 88.8298 81.2937 88.6692 81.3182 88.5159C81.1773 88.5133 81.0334 88.4904 80.8967 88.5123C80.1779 88.6261 79.4611 88.7565 78.7418 88.8693C78.5781 88.8953 78.4066 88.873 78.2382 88.873C78.2252 88.8303 78.2122 88.7877 78.1992 88.7446C78.3536 88.663 78.4996 88.5419 78.6644 88.5065C79.4627 88.335 80.2636 88.1708 81.0692 88.0357C81.5385 87.9572 81.8935 87.7774 82.1503 87.3486C82.3613 86.9962 82.6352 86.6641 82.9444 86.3964C83.0754 86.2831 83.368 86.3574 83.5874 86.3465C83.5899 86.5191 83.656 86.7249 83.5848 86.8585C83.1123 87.7472 83.367 87.7171 84.1778 87.6157C85.078 87.5035 85.9875 87.465 86.8939 87.4031C87.0613 87.3917 87.2312 87.4219 87.3996 87.4333C87.4085 87.4764 87.4173 87.5196 87.4261 87.5627C87.3092 87.6126 87.1964 87.6916 87.0748 87.7077C85.8659 87.8678 84.6565 88.0216 83.4455 88.1677C83.0884 88.2108 82.8608 88.3735 82.6981 88.7082C81.682 90.796 80.9341 92.9669 80.6082 95.272C80.5697 95.5433 80.603 95.8245 80.603 96.1015C80.6545 96.1374 80.7059 96.1732 80.7574 96.2091ZM81.998 88.5086C81.2636 89.1801 79.8723 93.5402 80.0708 94.3136C80.6898 92.4503 81.3442 90.48 81.998 88.5086Z" fill="#B7A37A"/>
<path d="M61.7051 93.9096C62.098 93.5483 62.4884 93.1845 62.8849 92.8275C63.1256 92.6102 63.3834 92.4538 63.7311 92.5972C64.0954 92.7479 64.1754 93.052 64.1817 93.395C64.1889 93.8015 64.1837 94.2074 64.1837 94.6138C64.243 94.6268 64.3022 94.6393 64.3615 94.6523C64.4743 94.5301 64.5902 94.4116 64.6988 94.2859C65.1551 93.7562 65.5881 93.2038 66.0746 92.7032C66.2835 92.4891 66.586 92.3394 66.8729 92.2334C67.3807 92.0453 67.8058 92.3358 67.7632 92.869C67.7154 93.473 67.5662 94.0681 67.4711 94.6689C67.3963 95.1387 67.324 95.6091 67.2778 96.0821C67.2611 96.2494 67.324 96.4251 67.3505 96.5966C67.3937 96.6262 67.4368 96.6553 67.4805 96.685C68.0636 96.1569 68.6467 95.6289 69.2299 95.1008C69.2512 95.1211 69.2725 95.1413 69.2943 95.1611C68.7356 95.7422 68.2013 96.3487 67.6104 96.8939C67.2502 97.2265 66.7481 96.9713 66.7585 96.4365C66.7762 95.5488 66.8828 94.6627 66.9659 93.777C66.9924 93.4969 67.0756 93.223 67.1088 92.9434C67.1208 92.8379 67.0641 92.7246 67.0392 92.6149C66.9171 92.643 66.7611 92.6326 66.679 92.7053C66.2804 93.0608 65.8511 93.3992 65.5278 93.8176C65.0923 94.381 64.7435 95.0109 64.3599 95.6138C64.3043 95.7016 64.2809 95.8201 64.2077 95.8846C64.0678 96.0072 63.9031 96.1013 63.7482 96.2073C63.6734 96.0472 63.5362 95.8872 63.5346 95.726C63.5284 95.0265 63.5731 94.3259 63.5725 93.6258C63.572 93.4517 63.4707 93.2776 63.4156 93.1034C63.2519 93.1897 63.0362 93.2355 62.9338 93.3685C62.2009 94.3238 61.4894 95.2957 60.7763 96.2661C60.6636 96.4194 60.5768 96.5925 60.4676 96.7733C60.2836 96.7141 60.1215 96.6616 59.9297 96.5997C59.939 96.4911 59.9286 96.3695 59.963 96.2619C60.5986 94.2739 61.282 92.3046 62.3439 90.4933C62.5008 90.2251 62.69 89.9715 62.8938 89.7361C62.9837 89.6321 63.1453 89.5905 63.2747 89.5204C63.3163 89.5542 63.3584 89.5879 63.4005 89.6217C62.7789 91.0307 62.1573 92.4397 61.5357 93.8488C61.5923 93.869 61.6485 93.8893 61.7051 93.9096Z" fill="#B7A37A"/>
<path d="M58.8941 94.434C58.7606 94.5135 58.6317 94.6018 58.4929 94.6715C57.8136 95.0119 57.1338 95.3508 56.4503 95.6824C56.1972 95.805 56.113 95.9474 56.2081 96.2458C56.4857 97.1184 56.1775 98.0493 55.468 98.6075C54.7253 99.1922 53.5616 99.305 52.8173 98.8642C52.3418 98.5825 52.2118 98.1537 52.5965 97.7515C53.0751 97.2515 53.6385 96.83 54.1853 96.3996C54.4727 96.173 54.8012 95.9984 55.2066 95.7401C54.9701 95.5712 54.8183 95.4443 54.6499 95.3471C54.2892 95.1382 53.901 94.9729 53.56 94.7375C53.1198 94.434 53.0232 94.0327 53.2477 93.5618C53.6151 92.7916 54.2731 92.3831 55.0751 92.1861C55.1941 92.157 55.3396 92.2064 55.4664 92.2427C55.7721 92.3316 55.8609 92.4896 55.6161 92.7526C55.2908 93.1019 54.9535 93.4423 54.6593 93.8165C54.1962 94.4059 54.2929 94.5244 54.8755 94.9735C55.5267 95.4755 56.0891 95.409 56.7455 95.0415C57.2627 94.7515 57.8219 94.5332 58.3728 94.3087C58.5163 94.25 58.6982 94.2853 58.8624 94.2775C58.8728 94.3295 58.8837 94.382 58.8941 94.434ZM53.3631 98.6995C54.453 98.7114 55.5325 97.6771 55.5558 96.738C55.5662 96.3289 55.4389 96.2359 55.0839 96.4168C54.335 96.7993 53.6375 97.2567 53.1287 97.9417C53.0268 98.0784 52.9312 98.3284 52.9904 98.4484C53.0637 98.596 53.3017 98.6626 53.3631 98.6995Z" fill="#B7A37A"/>
<path d="M78.4987 93.4765C78.2601 93.672 78.0252 93.871 77.783 94.0612C76.7981 94.8357 75.8241 95.6251 74.821 96.3746C74.0471 96.952 73.1693 97.1984 72.2078 96.9416C71.0488 96.6319 70.3835 95.4588 70.6829 94.2951C70.95 93.2541 71.5342 92.435 72.4141 91.8248C72.9172 91.4755 73.4723 91.4293 74.0331 91.6325C74.5752 91.829 74.7394 92.2463 74.5191 92.7837C74.1916 93.5805 73.4879 93.9043 72.7379 94.148C72.5155 94.2203 72.2686 94.2468 72.0337 94.2437C71.7114 94.239 71.5508 94.3902 71.5415 94.688C71.5326 94.9682 71.5238 95.2613 71.5924 95.529C71.8211 96.4188 72.3019 96.7431 73.1802 96.4936C73.8283 96.3096 74.4759 96.0414 75.0482 95.6885C75.9354 95.1428 76.756 94.4905 77.6089 93.8882C77.8714 93.7026 78.1458 93.5337 78.4145 93.3575C78.4426 93.397 78.4706 93.437 78.4987 93.4765ZM71.884 93.8409C72.661 93.7411 73.2431 93.4734 73.7 92.9781C73.8434 92.8227 73.9536 92.6034 73.9962 92.3965C74.0685 92.0457 73.8169 91.855 73.4858 91.9958C72.6865 92.3357 72.2052 92.9599 71.884 93.8409Z" fill="#B7A37A"/>
<path d="M72.625 115.373C72.7513 114.686 72.8646 113.958 73.0221 113.239C73.2716 112.099 73.6738 111.012 74.2897 110.015C74.4363 109.778 74.626 109.556 74.8375 109.377C74.9384 109.292 75.1385 109.324 75.2933 109.303C75.2933 109.451 75.336 109.616 75.2871 109.746C74.9607 110.607 74.6104 111.458 74.2798 112.317C74.2196 112.474 74.2123 112.652 74.1577 112.942C74.3547 112.824 74.4529 112.778 74.535 112.712C74.7913 112.509 75.0163 112.244 75.3027 112.105C75.5303 111.995 75.8806 111.936 76.0833 112.038C76.2476 112.122 76.3437 112.479 76.3453 112.715C76.3479 113.219 76.2538 113.722 76.2341 114.226C76.2278 114.383 76.3339 114.545 76.3884 114.704C76.5329 114.645 76.7034 114.616 76.8183 114.52C77.1847 114.216 77.5261 113.883 77.8868 113.571C78.0178 113.458 78.1763 113.375 78.3219 113.278C78.3541 113.312 78.3858 113.345 78.4175 113.378C78.3686 113.472 78.3395 113.587 78.2673 113.656C77.7746 114.128 77.3011 114.628 76.7647 115.046C76.2283 115.465 75.641 115.156 75.6213 114.473C75.6057 113.953 75.6483 113.433 75.6561 112.912C75.6577 112.823 75.6151 112.733 75.5932 112.643C75.5012 112.673 75.3859 112.678 75.3209 112.738C74.6114 113.388 73.9909 114.103 73.6795 115.039C73.4815 115.634 73.4789 115.632 72.9114 115.483C72.8693 115.472 72.822 115.481 72.7794 115.472C72.7529 115.465 72.7305 115.441 72.625 115.373ZM74.007 111.555C73.5792 111.986 73.1463 113.575 73.3137 114.056C73.5491 113.207 73.7611 112.441 74.007 111.555Z" fill="#B7A37A"/>
<path d="M117.71 93.4663C117.654 93.5282 117.605 93.5988 117.54 93.6498C116.393 94.5557 115.253 95.472 114.09 96.3576C113.349 96.9221 112.501 97.1871 111.569 96.9642C110.274 96.6539 109.586 95.4663 109.951 94.1919C110.235 93.195 110.816 92.3977 111.673 91.8141C112.191 91.4617 112.763 91.4206 113.334 91.6535C113.828 91.8546 113.996 92.2574 113.783 92.7408C113.324 93.7792 112.407 94.1493 111.369 94.2324C110.904 94.2693 110.76 94.4684 110.769 94.8639C110.774 95.1139 110.788 95.3748 110.861 95.6108C111.115 96.4309 111.546 96.6731 112.387 96.5219C113.183 96.3794 113.877 96.0125 114.527 95.5541C115.308 95.0047 116.077 94.4393 116.855 93.8863C117.107 93.7075 117.37 93.5458 117.629 93.3769C117.656 93.4065 117.683 93.4367 117.71 93.4663ZM111.211 93.8379C111.995 93.7023 112.667 93.4128 113.119 92.746C113.211 92.6103 113.281 92.3894 113.234 92.2501C113.191 92.1202 112.968 91.9502 112.843 91.9643C112.196 92.0386 111.291 93.0833 111.211 93.8379Z" fill="#B7A37A"/>
<path d="M96.0358 113.343C95.7022 113.61 95.3919 113.917 95.028 114.135C94.6398 114.368 94.2173 114.607 93.7817 114.683C93.0723 114.808 92.7033 114.365 92.9413 113.687C93.4028 112.373 94.3488 111.484 95.6387 111.011C95.9319 110.904 96.3383 111.102 96.6907 111.169C96.7598 111.182 96.8165 111.248 96.8846 111.276C97.4459 111.515 97.4287 111.511 97.2889 112.132C97.107 112.942 96.9324 113.754 96.8087 114.573C96.777 114.783 96.949 115.025 97.0275 115.251C97.2484 115.156 97.5145 115.11 97.6829 114.957C98.5202 114.195 99.3289 113.401 100.154 112.625C100.327 112.463 100.528 112.33 100.717 112.184C100.755 112.223 100.794 112.262 100.832 112.302C100.753 112.409 100.686 112.528 100.594 112.622C99.8185 113.427 99.0384 114.228 98.2572 115.028C98.1538 115.134 98.0373 115.228 97.9246 115.326C97.5727 115.628 97.1834 115.775 96.7328 115.567C96.2858 115.361 96.1289 114.972 96.1283 114.509C96.1283 114.287 96.1647 114.065 96.1762 113.843C96.1839 113.691 96.1777 113.54 96.1777 113.388C96.1304 113.373 96.0831 113.358 96.0358 113.343ZM96.5826 111.881C96.5717 111.398 96.2411 111.166 95.8908 111.36C94.9158 111.9 94.1653 112.66 93.749 113.712C93.7027 113.83 93.7438 113.983 93.7443 114.12C93.8675 114.106 94.0073 114.126 94.1112 114.074C95.0416 113.606 95.8071 112.933 96.4594 112.128C96.5301 112.042 96.5623 111.924 96.5826 111.881Z" fill="#B7A37A"/>
<path d="M82.5818 113.341C82.1837 113.648 81.8115 114 81.3796 114.247C81.0039 114.461 80.5694 114.633 80.1442 114.684C79.6297 114.746 79.3973 114.461 79.4509 113.948C79.4779 113.689 79.559 113.42 79.679 113.188C80.1842 112.212 80.968 111.517 81.9623 111.068C82.3874 110.876 82.8292 110.86 83.233 111.163C83.2923 111.208 83.3583 111.271 83.4238 111.274C84.0438 111.309 83.9586 111.645 83.8359 112.088C83.6301 112.832 83.4939 113.593 83.3292 114.348C83.3193 114.392 83.299 114.441 83.3105 114.48C83.391 114.737 83.4783 114.993 83.5636 115.249C83.7949 115.142 84.0703 115.082 84.2507 114.918C85.1004 114.146 85.9216 113.342 86.76 112.558C86.9128 112.414 87.0988 112.307 87.2698 112.183C87.3052 112.218 87.341 112.254 87.3764 112.29C87.287 112.41 87.2085 112.541 87.1056 112.648C86.3499 113.432 85.589 114.211 84.8291 114.992C84.7772 115.045 84.7216 115.094 84.6675 115.146C84.259 115.535 83.8094 115.838 83.2294 115.55C82.6696 115.272 82.64 114.741 82.6769 114.198C82.6951 113.925 82.7034 113.652 82.7164 113.378C82.6717 113.366 82.6265 113.353 82.5818 113.341ZM80.2248 114.115C80.3194 114.148 80.3485 114.168 80.3745 114.164C80.4321 114.156 80.4924 114.146 80.5444 114.121C81.5397 113.64 82.3625 112.94 83.0194 112.062C83.1156 111.933 83.0496 111.6 82.9435 111.436C82.8796 111.336 82.5506 111.298 82.416 111.371C81.4649 111.888 80.7331 112.629 80.3069 113.64C80.2445 113.788 80.2492 113.964 80.2248 114.115Z" fill="#B7A37A"/>
<path d="M51.5734 94.1577C51.0874 94.3365 50.6134 94.5657 50.1129 94.6811C49.587 94.8022 49.2767 95.0595 49.0241 95.5459C48.7923 95.9929 48.4014 96.3697 48.0324 96.7278C47.8656 96.8905 47.5891 96.9856 47.3495 97.0199C46.5132 97.14 45.9597 96.5386 46.0657 95.6504C46.1717 94.7637 46.5169 93.9706 47.1821 93.3771C47.4623 93.1276 47.8723 92.9535 48.2471 92.8958C48.9357 92.7892 49.3713 93.2206 49.4071 93.9223C49.4414 94.6005 49.4924 94.6447 50.1509 94.4545C50.6108 94.3219 51.062 94.1587 51.5173 94.0091C51.536 94.059 51.5547 94.1083 51.5734 94.1577ZM47.6031 94.3142C47.1 94.8604 46.956 95.522 46.9295 96.206C46.9176 96.508 47.1587 96.6597 47.4061 96.4217C47.797 96.0454 48.1488 95.626 48.4898 95.2029C48.5412 95.1385 48.4893 94.9009 48.4097 94.837C48.1707 94.6437 47.8942 94.4971 47.6031 94.3142ZM48.969 93.9675C48.8001 93.7372 48.6691 93.559 48.5381 93.3807C48.3791 93.5486 48.0672 93.7492 48.0948 93.8771C48.1478 94.125 48.3921 94.3318 48.5573 94.5558C48.6774 94.3833 48.798 94.2112 48.969 93.9675Z" fill="#B7A37A"/>
<path d="M100.995 94.1645C100.5 94.3412 100.016 94.56 99.5092 94.6827C99.0056 94.8048 98.7073 95.0506 98.4531 95.5215C98.1943 96.0023 97.7754 96.4212 97.3544 96.7824C96.937 97.141 96.4121 97.1171 95.9303 96.8474C95.4979 96.6062 95.487 96.179 95.4958 95.7518C95.5202 94.5413 96.3872 93.218 97.3435 92.9353C98.1834 92.6874 98.7941 93.1177 98.8455 93.995C98.8809 94.5902 98.911 94.6265 99.4718 94.4722C99.9661 94.3365 100.449 94.1603 100.938 94.0018L100.995 94.1645ZM97.0098 94.2986C96.5363 94.8703 96.3638 95.5153 96.3523 96.206C96.3477 96.4836 96.5415 96.6644 96.7806 96.4383C97.1933 96.0485 97.5602 95.6083 97.9204 95.1681C97.964 95.1146 97.8871 94.8864 97.8019 94.8178C97.5753 94.6338 97.3133 94.4924 97.0098 94.2986ZM98.4017 93.9327C98.225 93.7191 98.0831 93.5481 97.9417 93.3771C97.7894 93.5361 97.5618 93.6718 97.503 93.8599C97.4168 94.1359 97.8071 94.6317 97.9859 94.534C98.1532 94.442 98.2333 94.19 98.4017 93.9327Z" fill="#B7A37A"/>
<path d="M89.9209 94.1524C89.448 94.3296 88.987 94.5599 88.4994 94.6706C87.9584 94.7932 87.6258 95.0437 87.3675 95.5536C87.1398 96.0021 86.762 96.4075 86.3654 96.7256C86.1144 96.9267 85.7038 97.0187 85.3706 97.0068C84.7054 96.9834 84.3421 96.4751 84.4081 95.7573C84.4949 94.8187 84.8337 93.9699 85.5603 93.3608C85.8675 93.1035 86.3171 92.9414 86.7209 92.8915C87.3144 92.8187 87.7193 93.2626 87.7521 93.8702C87.7921 94.6118 87.8316 94.6461 88.5441 94.4377C88.9885 94.3073 89.4246 94.1493 89.8643 94.0037C89.883 94.0531 89.9022 94.103 89.9209 94.1524ZM85.9558 94.3062C85.4527 94.8441 85.3285 95.5021 85.2719 96.1664C85.2428 96.5084 85.5011 96.644 85.7604 96.4101C86.1627 96.0473 86.5042 95.6139 86.8477 95.1919C86.8961 95.1321 86.8534 94.9128 86.7822 94.8566C86.5291 94.6565 86.2453 94.4944 85.9558 94.3062ZM87.3342 93.9294C87.1564 93.709 87.0229 93.5438 86.8893 93.3785C86.7292 93.5469 86.4127 93.7506 86.4413 93.8764C86.4979 94.1254 86.7448 94.3312 86.9127 94.5547C87.0405 94.365 87.1684 94.1752 87.3342 93.9294Z" fill="#B7A37A"/>
<path d="M71.6889 112.767C71.258 112.928 70.8376 113.136 70.3932 113.237C69.7711 113.379 69.3449 113.651 69.0668 114.275C68.8776 114.698 68.4759 115.053 68.1063 115.365C67.7082 115.699 67.1963 115.793 66.7337 115.502C66.5102 115.362 66.2675 115.082 66.2337 114.837C66.0664 113.619 66.5549 112.626 67.4541 111.831C67.8049 111.52 68.2555 111.447 68.716 111.513C69.1791 111.58 69.4488 111.932 69.5008 112.505C69.5653 113.216 69.5964 113.244 70.2841 113.048C70.7341 112.92 71.1754 112.762 71.6208 112.617C71.6437 112.667 71.666 112.717 71.6889 112.767ZM66.9681 114.593C67.0612 114.816 67.0877 115.025 67.2046 115.107C67.2784 115.159 67.5055 115.05 67.6287 114.964C67.8205 114.828 68.004 114.668 68.1531 114.487C68.8283 113.667 68.8173 113.669 67.9634 113.067C67.7394 112.91 67.6001 112.951 67.5107 113.168C67.3158 113.643 67.1438 114.127 66.9681 114.593ZM69.1011 112.561C68.9229 112.335 68.7898 112.166 68.6567 111.997C68.4894 112.16 68.1604 112.361 68.1874 112.478C68.2467 112.73 68.4889 112.94 68.6562 113.167C68.7903 112.984 68.9244 112.801 69.1011 112.561Z" fill="#B7A37A"/>
<path d="M113.979 90.773C113.611 90.7845 113.441 90.5459 113.441 90.2439C113.442 89.9337 113.641 89.7175 113.992 89.7278C114.332 89.7372 114.522 89.9202 114.519 90.259C114.516 90.6015 114.313 90.7652 113.979 90.773Z" fill="#B7A37A"/>
<rect x="0.707107" y="77.7812" width="109" height="109" transform="rotate(-45 0.707107 77.7812)" stroke="white"/>
<defs>
<clipPath id="clip0_510_2252">
<rect width="44.2103" height="56.0795" fill="white" transform="translate(55.6562 24.7109)"/>
</clipPath>
</defs>
</svg>
