<svg width="80" height="91" viewBox="0 0 80 91" fill="none" xmlns="http://www.w3.org/2000/svg">
<g clip-path="url(#clip0_402_995)">
<path d="M17.9707 51.2068V50.9618L18.0796 50.7441L18.1885 50.5807L18.3518 50.3085L18.5968 50.0363L18.8146 49.8185L19.0596 49.6279L19.3863 49.4101L19.713 49.2468L20.0941 49.0562L20.5297 48.8929L20.9108 48.7295L21.3191 48.5934L21.7547 48.4845L22.1358 48.3484L22.517 48.2395L22.9525 48.1306L23.3064 48.0217L23.6603 47.9129L24.0687 47.804L24.477 47.7223L24.8854 47.5862L25.3209 47.4773L25.8654 47.3139L26.2193 47.2051L26.6821 47.0689L27.1993 46.9056L27.6349 46.7423L28.1521 46.5245L28.6421 46.3339L29.2411 46.0617L29.8944 45.7622L30.2755 45.5444L30.82 45.2722L31.3372 44.9455L31.7456 44.6461L32.1539 44.3194L32.5351 44.02L32.8617 43.7477L33.2973 43.3666L33.7056 42.9038L34.1412 42.441L34.4951 41.951L34.7673 41.5154L35.1212 40.9437L35.4479 40.3448L35.6929 39.8004L35.9107 39.3376L36.0741 38.8476L36.2374 38.3576L36.4007 37.7859L36.5913 37.0781L36.7274 36.3158L36.8363 35.5808V34.0835L36.7274 33.4302L36.5913 32.5863L36.2374 31.0618L36.0741 30.7351C35.7292 30.3267 34.8436 28.9111 34.0595 26.5155M34.0595 26.5155C33.8236 26.3068 33.3027 25.7642 33.1067 25.2633V23.6299L32.9978 23.3032L32.3173 21.5881C32.2447 21.3976 32.1213 20.9566 32.2084 20.717L32.3173 20.4992H32.5623L32.7256 20.717M34.0595 26.5155C33.8418 26.1671 33.624 24.1018 33.5423 23.1126M32.7256 20.717C32.8708 21.3431 33.2374 22.6988 33.5423 23.1126M32.7256 20.717L31.9361 18.648L31.8273 18.158V17.7225C31.8055 17.6353 31.9997 16.9965 32.0995 16.688V16.3069L31.6095 14.7279C31.5459 14.5827 31.4026 14.1726 31.3372 13.6934C31.2719 13.2143 31.3281 12.5501 31.3645 12.2778L31.4734 11.57L31.6639 10.5356C31.7002 10.2997 31.7891 9.77333 31.8545 9.55554C31.9198 9.33776 32.2809 8.73885 32.4534 8.46662V9.3922C32.4098 9.3922 32.5441 9.73701 32.6167 9.90944H32.7256L33.0523 9.55554L33.134 9.60999L33.2973 10.5356L33.4334 10.8622L33.5695 11.0256C33.6331 11.0165 33.7601 11.031 33.7601 11.1617C33.7601 11.2924 34.9035 11.4884 35.4751 11.57M33.5423 23.1126V21.9693L33.6512 20.9892L33.869 19.4647L34.0323 17.9675L34.1684 16.5246L34.2501 15.5174L34.359 14.8096L34.4951 14.2107C34.731 13.4575 35.2574 11.8749 35.4751 11.57M35.4751 11.57C36.0377 11.5791 37.1521 11.5537 37.1085 11.3795V11.1617H36.5913C36.3009 11.0891 35.6167 10.8405 35.2029 10.4267L34.2501 9.50109L33.8962 9.0383L33.7329 8.73885L33.5968 8.41217C33.5151 8.20348 33.3572 7.76426 33.379 7.67715V7.13269L33.4334 6.75156L33.5968 6.28877L33.8418 5.71709L34.114 5.28152L34.4134 4.90039L35.0396 4.16537L35.3935 3.83869L35.7202 3.56646L35.9924 3.34868L36.5368 2.99478L36.8907 2.80422L37.2446 2.64088L37.6258 2.47754L38.1975 2.25976L38.2519 2.28698L38.1975 2.39587L37.6258 2.91311L37.2991 3.29423L37.1085 3.51202L36.918 3.83869L36.7274 4.16537L36.5096 4.60094L36.5368 4.65539L36.7274 4.4376L37.0541 4.05648L37.4624 3.51202L37.8708 3.15812L38.1702 2.94033L38.5514 2.64088L38.9325 2.39587L39.2319 2.25976L39.5858 2.12364L39.8581 2.04197H40.0758H40.2392L40.3481 2.09642L40.4842 2.12364L40.947 1.9603L41.3281 1.85141L41.682 1.79696L42.0087 1.7153L42.3354 1.66085L42.7982 1.6064H43.4243M43.4243 1.6064V1.44306L43.3154 1.41584H42.3898L42.0631 1.47029L41.5731 1.52473H40.8653L40.457 1.44306L40.0214 1.30695L39.5586 1.14361V1.03472L39.7219 0.980272L40.3481 0.708041L41.0014 0.408587L41.7092 0.190803L42.0631 0.109134L42.4443 0.0546875H43.3154L43.6693 0.136357C43.8145 0.208951 44.1266 0.419477 44.2138 0.680818C44.3009 0.94216 44.2863 1.15269 44.2682 1.22528V1.33417M43.4243 1.6064H44.0504M44.4315 1.6064H44.0504M44.0504 1.6064L44.2682 1.33417M44.2682 1.33417C44.5132 1.13453 45.0468 0.713486 45.221 0.626372C45.3952 0.539258 45.7292 0.444885 45.8744 0.408587L46.4188 0.299695L46.7183 0.245249H47.7528L48.1339 0.299695L48.4878 0.381364L49.0322 0.51748L49.7945 0.762487L50.6656 1.17083L51.4551 1.6064L52.4623 2.36865L53.3063 3.21256L53.5785 3.59369L53.8779 3.94759L54.1774 4.41038L54.4496 4.84595L54.8852 5.60819L55.4297 6.9149L55.7563 7.67715L55.9741 8.52106L56.328 9.69166L56.6547 11.1345L56.818 11.9512L56.9269 12.7679L57.0358 13.4757L57.1719 14.4829L57.1992 14.864L57.2536 15.5991L57.2808 16.0619L57.3353 16.9874L57.3625 17.913L57.4169 19.492V22.4321V24.6916L57.3625 26.5155L57.3081 27.4139L57.2536 28.8567L57.1447 30.5173L57.0358 32.069L56.9269 33.1579L56.8725 33.5118L56.818 34.1108C56.7001 34.6733 56.4424 35.8204 56.3552 35.9075L55.9741 36.7514L55.6474 37.4047L55.2935 37.9492L55.0485 38.3303C54.8398 38.6479 54.4115 39.2886 54.368 39.3104C54.3244 39.3321 54.0232 39.7368 53.8779 39.9365L52.9524 41.0526L51.2645 43.0671C51.0649 43.3303 50.6711 43.8729 50.6928 43.9383L50.0939 45.0544L49.4678 46.4973L49.0595 47.7223L48.8417 48.3484L48.6511 48.9473L48.5694 49.3829L48.4333 49.8457L48.27 50.5535L48.1611 51.098L48.0522 51.6152L47.9433 52.1869L47.8616 52.7313L47.6983 53.548M47.6983 53.548L48.2155 52.078L48.3517 51.6696L48.515 51.2885L48.6511 50.8257L48.8417 50.3629L49.0595 49.7368L49.25 49.0834L49.4406 48.539L49.5495 48.2123L49.7128 47.8584L49.9034 47.4501L50.1484 46.8512L50.3934 46.2522L50.7745 45.49L51.0467 44.9728L51.2918 44.5372L51.5095 44.2105L51.7545 43.7749L52.0268 43.3666L52.4079 42.8494L52.7618 42.3866L53.2246 41.8149L53.6329 41.3249L53.9868 40.9165L55.7836 38.9837L56.9269 37.7314L57.662 36.9147L58.6692 35.853L58.8053 35.7714L58.8598 35.853L58.8053 36.4247L58.7237 37.5409L58.5875 38.6298L58.4786 39.7187L58.1247 42.4955L57.6347 45.8711L57.3897 46.9328L57.2264 47.5045L57.0358 47.9129L56.818 48.3756L56.6003 48.7023L56.2736 49.1651L55.8108 49.7368L55.1574 50.4446L54.5857 50.9618L54.0685 51.3702L53.4152 51.7785L52.789 52.1324L52.3535 52.3774L51.7545 52.6224L51.3462 52.7858L50.9379 52.9219L50.3117 53.0852L49.6311 53.2486L48.8961 53.3847C48.6239 53.4664 48.0032 53.6134 47.6983 53.548ZM39.4769 30.3267L40.9198 29.6189L41.2464 29.4556L41.4914 29.3739L41.7092 29.3195H41.8998L42.1176 29.4556L42.2537 29.6189H42.4987L42.662 29.5101L42.8254 29.3739L43.0432 29.2378H43.3426L43.6965 29.3195L44.2138 29.5101L45.3027 29.9456M39.4769 30.3267L40.7292 30.9529L41.2464 31.1979L41.8453 31.2796H43.2337L43.5876 31.1979L43.751 31.089L44.7038 30.4356L45.3027 29.9456M39.4769 30.3267L39.9942 30.2723H40.1575L40.6203 30.4356H40.8653L41.1648 30.3812L41.7092 30.2723H42.7709H44.0504L44.7582 30.1634L45.3027 29.9456M43.4515 26.8966L42.7165 27.2233L42.4443 27.2778H41.6548L41.2464 27.2233L41.0014 27.06L40.7564 26.7605V26.2977L41.0559 25.3449L41.1103 25.1271V23.4393L41.0559 22.8404L40.9742 22.2143M40.9742 22.2143L40.7564 21.1798L40.5386 20.4448M40.9742 22.2143L40.5386 20.4448M40.5386 20.4448L40.457 20.1998M40.457 20.1998L39.6947 20.0364L38.7419 19.8459L37.8163 19.6281L37.2174 19.5464C37.0087 19.5192 36.526 19.4647 36.2646 19.4647C36.0033 19.4647 35.7746 19.5192 35.6929 19.5464L35.3935 19.6281L35.1757 19.7097L34.9851 19.8459L34.7129 20.0909L34.3862 20.3631H34.3318L34.7673 19.5464L34.9851 19.1653L35.2301 18.8114L35.3935 18.648L35.6113 18.5392L35.8563 18.4303L36.1557 18.3486H37.0541L37.5713 18.4303L37.9524 18.5392L38.5241 18.7025L39.2864 18.8931L39.967 19.0836L40.3481 19.2197L40.457 19.3286V19.7642V20.1998ZM39.6947 23.1126L39.4225 23.276L39.1775 23.3849L38.9869 23.4393L38.7147 23.521H38.5241H37.5985L37.2991 23.4393L36.9452 23.3032L36.6457 23.1671L36.4007 23.0037L36.2918 22.8948M36.2918 22.8948L36.2374 23.0037L36.1013 23.1126L35.9652 23.1671H35.584L35.4207 23.1126L35.2574 22.9493M36.2918 22.8948L36.1877 22.786M36.1877 22.786L35.6929 22.2687M36.1877 22.786L36.0468 22.8948L35.8563 22.9493H35.584L35.3663 22.786" stroke="#B7A37A" stroke-width="0.491926"/>
<path d="M47.6463 2.64023L48.3269 2.99413L48.7353 3.29359L49.0347 3.45692H49.2525V3.37525L49.1164 3.15747L48.7897 2.77635L48.6264 2.61301L48.3541 2.20466L48.0547 1.60575L47.8369 1.27908L47.5919 1.00685L47.3741 0.870732L47.1835 0.816286L46.9658 0.789062H46.0402L45.7135 0.870732L45.4957 0.925178L45.1963 1.06129L44.8696 1.19741L44.5429 1.33352L44.0529 1.60575H44.4068L44.7062 1.63298L45.1146 1.74187L45.8224 1.90521L46.3669 2.12299L46.8569 2.28633L47.6463 2.64023ZM47.6463 2.64023L48.0002 2.96691V3.10302L47.9186 3.21192L47.728 3.32081L47.238 3.62026L46.3669 4.19195L45.8496 4.65474L45.414 5.06309L45.0874 5.49865L44.924 5.82533L44.7335 6.2609L44.5974 6.91425V7.75817L44.6518 8.13929L44.8151 8.62931L44.9785 9.20099V9.55489L44.9513 9.69101L44.8151 9.99046L44.7607 10.1538V10.2082M44.7607 10.2082H44.8968M44.7607 10.2082L44.5974 10.3988H43.9984H43.6445L43.3451 10.426L43.1001 10.4805L42.9095 10.5349L42.6101 10.6983L42.2834 10.8344L42.0384 10.916L41.7117 10.9705L41.5756 10.9977H40.5411L40.3778 10.9705L39.8333 10.8344L39.2072 10.5894L38.6355 10.2899L38.1455 9.88157L37.7371 9.47322L37.3288 8.81987L37.111 8.30263L37.0021 7.81262L36.866 7.40427L36.8388 7.02315L36.866 6.36979L36.9477 5.82533L37.0566 5.17198L37.1382 4.8453L37.2743 4.54585L37.4377 4.21917L37.6827 3.89249L38.0094 3.62026L38.5266 3.21192L39.1527 2.83079L40.0239 2.368L40.4867 2.12299M44.8968 10.2082L45.0329 10.0994L45.169 9.99046L45.3052 9.88157L45.4957 9.60934L45.6591 9.20099L45.7135 9.01043L45.7679 7.86706L45.9313 7.21371L46.0946 6.66925L46.3669 6.17923L46.748 5.58032L47.238 5.06309L47.8097 4.4914C48.0275 4.30084 48.4739 3.91427 48.5175 3.89249C48.561 3.87071 48.6627 3.82897 48.708 3.81082H48.8986H49.0347L49.2525 3.97416L49.6608 4.38251L50.2598 5.00864L50.9676 5.77089L51.6481 6.66925L52.1654 7.40427L52.3832 7.75817L52.6009 8.00318L52.9821 8.43875L53.1182 8.7382V9.30988L53.0365 10.0177L52.9276 10.3716L52.7098 11.2155L52.5193 11.9233L51.9476 13.4478L51.7298 14.0739L51.3759 14.7001L50.8859 15.5167L50.5048 16.034L50.287 16.4423L50.1781 16.769M44.8968 10.2082L44.8151 10.3988L45.0601 10.4805L45.5774 10.6983L46.0946 11.1338L46.6391 11.6238L47.2108 12.3044L47.5374 12.9306V13.3661L47.4013 13.8289L47.3469 14.0195V14.21C47.4195 14.3098 47.5701 14.5149 47.5919 14.5367C47.6137 14.5585 47.855 14.7273 47.973 14.8089L48.3541 14.9995L48.9258 15.299L49.3886 15.6529L49.552 15.8434L49.8242 16.1973L50.0692 16.524L50.1781 16.769M50.1781 16.769H50.287L50.4503 16.6601L50.777 16.279L51.7298 14.9723L52.0565 14.4823L52.3287 14.0195L52.492 13.6656L52.7098 13.1756L52.8732 12.7128L53.1726 11.7055L53.2543 11.3244L53.3632 10.7799L53.4449 10.4805L53.5537 10.426L53.6899 10.4805L53.7988 10.6983L53.8804 11.1883V11.5422L53.7988 12.1411L53.6082 12.8761L53.4449 13.6111L53.3632 14.0739V14.5367L53.4449 14.7545L53.6082 14.9723L53.7443 15.2445V16.1157L53.6082 16.769L53.4993 17.1774L53.3904 17.4768L53.2271 17.8852L53.0093 18.3207L52.5737 18.838L52.0565 19.4913M50.1781 16.769L50.6953 17.7763L50.8587 18.1846L50.9676 18.4296L51.022 18.9196L50.9676 19.8452L50.8587 20.4986L50.6953 20.8525L50.7498 20.9341L52.0565 19.4913M52.0565 19.4913V19.7635L52.2198 20.2536L52.3015 20.8525V21.5603L52.2198 22.1047L51.9476 22.9759L51.4848 23.9831L51.0492 24.9904L50.7498 25.6165V25.2082L50.6953 24.4459L50.6409 23.6837L50.5592 22.9759L50.4503 22.3225L50.287 21.8053L50.0964 21.2608L49.8786 20.6891L49.5247 20.0358L49.1708 19.4369L48.7625 18.838L48.4358 18.4296L48.1908 18.1302L47.5919 17.3679L46.7752 16.4423L46.0402 15.5712L45.8496 15.299L45.6318 14.8906L45.5229 14.7001L45.3868 14.3462L45.2779 13.965L45.2235 13.6384L45.1146 13.3117H45.0329L44.8696 13.4206L44.6518 13.7745L44.434 14.21L44.189 14.8089L43.6445 15.8162L43.2906 16.4968L42.719 17.5313L42.4467 18.2391L42.3378 18.5657L42.2562 18.9741L42.1745 19.328V20.0902L42.2562 20.5258L42.3651 21.1791L42.5284 21.6692L42.8279 22.4586L43.454 23.7109L44.0257 24.7181L44.679 25.8343L45.0601 26.5149L45.4957 27.3043L45.7952 28.0121L46.0402 28.6383L46.1491 29.1011L46.3124 29.9178L46.3669 30.4894V31.905L46.2852 32.749L46.1218 33.3479L46.013 33.5112L45.8224 33.7018L45.4685 33.9468L44.679 34.5185L43.9168 34.954L43.3723 35.1446L42.8823 35.3079H42.1745L41.7389 35.199L41.2489 34.954L40.4322 34.5185L39.7244 34.0829L39.0983 33.7018L38.6899 33.3479L38.091 32.749L37.5738 32.3406L37.0838 31.905L36.621 31.3878L36.1582 30.8706" stroke="#B7A37A" stroke-width="0.491926"/>
<path d="M46.1199 33.3758L46.011 33.7569L45.8477 34.3013L45.6027 34.9547L45.3849 35.5264L44.8949 36.7242L44.6226 37.4592L44.1871 38.7115L43.9148 39.6098L43.7515 40.3449L43.5609 41.1616L43.3431 42.3322L43.207 43.6661V45.1361V45.4356L43.3431 46.0073L43.4793 46.6334L43.7515 47.4501L44.3232 48.6751L44.7043 49.5735L45.2215 50.5535L45.6299 51.2613L46.1471 52.1325L46.7188 53.0036L47.0727 53.3847L47.2905 53.5208L47.5627 53.5753H47.7261M47.7261 53.5753L47.6444 53.3847M47.7261 53.5753L47.3722 53.3847L46.9366 52.8675L46.7188 52.5136L46.501 52.078L46.1199 51.1797L45.6299 50.1452L45.2215 49.1107L44.9221 48.3212L44.7587 47.6134L44.5954 46.8784L44.5137 45.9528L44.4321 45.245V43.3939L44.541 42.4683L44.6771 41.8966L44.8949 41.1616L45.0854 40.6171L45.3304 39.9637L45.6571 39.3376L46.011 38.6298L46.4466 37.8403L46.9366 36.9964L47.4811 36.0708L48.08 35.0636L48.6244 34.1108L49.0055 33.3758L49.3322 32.7769L49.6317 32.0963L49.8767 31.5518L49.9856 31.1979L50.2306 30.4084L50.3939 29.7823L50.5028 29.1562L50.5845 28.5028L50.6389 27.9039L50.6934 26.8967L50.7478 25.6172M47.6444 53.3847L47.5627 52.813V51.833L47.6444 50.6896L47.7261 49.5735L47.8622 48.784L47.9711 48.2123L48.1889 47.2595L48.3522 46.7967L48.4611 46.4973L48.7061 45.8439L49.0872 45.0545L49.5772 44.1289L50.4211 42.7405L50.9656 41.8966L51.5645 41.0254L52.3812 39.8276L52.7079 39.3104L53.0618 38.7115L53.334 38.1398L53.579 37.5953L53.8513 36.9148L54.2596 35.6081L54.3957 34.9547L54.5046 34.4375L54.6135 33.7569L54.6952 32.8313L54.7768 31.8785L54.8585 30.9801V30.4357V29.864M47.6444 53.3847L47.2905 52.4591L46.991 51.3702L46.6371 50.2541L46.4738 49.2468L46.3377 48.5118L46.2288 47.6134L46.1471 47.0145V46.4973V44.1289L46.2288 43.3939L46.3377 42.9038L46.4194 42.4955L46.5555 42.0055L46.746 41.3793L47.0727 40.5082L47.4811 39.6643L47.7533 39.1198L48.2433 38.3031L48.7061 37.5953L49.3594 36.8059L49.9856 35.962L50.7206 35.0636L51.3195 34.3558L52.109 33.4847L52.599 32.8313L53.5246 31.7152L54.1507 30.844L54.6135 30.2723L54.8585 29.864M54.8585 29.864L54.9946 29.0745L55.1035 28.6662L55.2396 28.3123L55.4302 27.8495L55.6208 27.5228L55.8113 27.4411H55.9202L56.0563 27.5228V27.6861V28.0673L55.9202 28.3123L55.7296 28.6662L55.4302 29.0745L55.1035 29.5373L54.8585 29.864Z" stroke="#B7A37A" stroke-width="0.491926"/>
<path d="M47.727 53.6306L47.3186 53.9301L46.8014 54.2567L46.0392 54.7467L45.1952 55.1279L44.0791 55.5634L42.7179 55.8901L41.6562 56.0262H40.5129L39.6962 55.8901L38.7161 55.6451L37.1917 55.0462L35.531 54.0662L33.8432 53.0861L31.6381 51.8883L30.8759 51.4528L29.9503 51.1261L29.3514 50.9627L28.8614 50.8811H27.5547V50.7722L28.1264 50.5272L29.6509 50.1188L31.0937 49.7921L32.2915 49.5199L33.2715 49.3294L34.3605 49.166H35.3405L36.5383 49.3294L37.0283 49.5199L37.6817 49.8738L38.5256 50.3911L39.5328 51.1261L40.404 51.6978L41.2751 52.215L42.2279 52.6778L43.2352 53.1678L44.433 53.6306L45.1136 53.8212L45.9303 53.9301H46.6381L47.727 53.6306ZM47.727 53.6306L46.9103 53.7123H46.6381L46.2025 53.6306L45.6036 53.4673L45.0047 53.2495L44.1608 52.8956L43.2352 52.4056L42.2279 51.6978L41.4385 51.0444L40.7579 50.3911L40.0773 49.5744L39.5328 48.676L39.2062 48.1588L38.7706 47.1787L38.5256 46.5526L38.3622 46.0354L38.1717 45.1914L38.0083 43.667V39.5835L38.09 37.9501V37.2695L38.5256 37.5145L39.3151 38.1407L39.9684 38.7124L40.5401 39.2568L40.894 39.8013L41.2207 40.3457L41.4929 41.0263L41.7924 41.9247L42.0101 42.7958L42.2551 44.0753L42.3913 45.1098L42.5546 46.1987L42.6907 47.0154L42.8541 47.6415L43.1263 48.5127L43.6707 49.6833L44.188 50.5544L44.5147 51.0444L45.0047 51.6978L45.4675 52.215L46.0936 52.8956L46.6381 53.2495L47.1281 53.5489L47.3186 53.6034L47.6453 53.6252M47.727 53.6306H48.8704L49.442 53.6034L50.1771 53.4673L51.1026 53.2495L51.8921 53.0045L52.4638 52.705L54.07 52.0244L54.9411 51.6978L55.8122 51.48L56.6834 51.3439H58.3984L60.3585 51.5889L61.5563 51.8339L62.128 51.9428V52.0244L60.5763 53.0045L59.1879 53.9573L58.7796 54.1751L58.099 54.4201L56.9828 54.7467L56.1117 54.9101L55.1861 55.0462H52.2732L51.2115 54.9101L50.4493 54.7467L49.6054 54.5017L48.217 54.0662L47.727 53.8212L47.6453 53.6252M47.727 53.6306L47.6453 53.6252" stroke="#B7A37A" stroke-width="0.491926"/>
</g>
<path d="M18.129 90.8961C18.1232 90.8119 18.0983 90.7235 18.1149 90.644C18.5115 88.7521 18.8706 86.8509 19.3228 84.9726C19.8425 82.8162 20.7677 80.8142 21.8383 78.8781C21.9381 78.6978 22.028 78.5112 22.1226 78.3277C22.0992 78.2908 22.0753 78.2544 22.0519 78.2181C21.8285 78.3277 21.5909 78.4161 21.383 78.5502C19.8498 79.5356 18.5125 80.7336 17.4361 82.2138C17.3364 82.351 17.1986 82.4607 17.0786 82.5834C17.025 82.5511 16.9715 82.5194 16.918 82.4872C16.9803 82.2751 17.0011 82.0371 17.1124 81.8552C18.1305 80.1848 19.5333 78.9187 21.2531 78.0019C22.3165 77.4348 23.4329 77.0367 24.6579 77.0424C26.491 77.0502 27.7171 78.2207 27.8346 80.0439C27.8995 81.046 27.7129 82.0085 27.3689 82.9347C26.5487 85.141 25.4121 87.1565 23.6294 88.7423C22.4184 89.8202 21.0369 90.4875 19.3592 90.3368C18.855 90.2916 18.393 90.3254 18.2438 91C18.2054 90.9652 18.1674 90.9309 18.129 90.8961ZM26.9952 80.3532C26.9635 80.3412 26.9313 80.3292 26.8995 80.3173C26.8606 79.9925 26.8429 79.6629 26.7774 79.3438C26.5721 78.3402 25.8195 77.546 24.8071 77.4956C24.1642 77.4639 23.5046 77.7113 22.8575 77.8563C22.7702 77.8756 22.6481 78.0289 22.6512 78.1167C22.6762 78.8911 22.2453 79.5112 21.9423 80.1598C20.54 83.1649 19.5598 86.312 18.709 89.5058C18.5879 89.9616 18.6497 90.0473 19.1081 90.0276C20.4953 89.9678 21.6757 89.4132 22.658 88.4528C24.2816 86.865 25.4547 84.9741 26.2551 82.8593C26.5622 82.047 26.7519 81.1899 26.9952 80.3532ZM27.1251 81.5875C27.4817 80.9269 27.4858 79.9348 27.1251 79.6078V81.5875Z" fill="#B7A37A"/>
<path d="M67.4995 69.9185C67.3093 70.0547 67.1674 70.1903 66.999 70.2699C66.5349 70.4892 66.076 70.8 65.5864 70.866C64.6576 70.9918 64.1529 70.2465 64.4861 69.3681C64.8925 68.2969 66.0952 67.6239 67.2272 67.8349C68.3966 68.0527 68.4065 68.0527 68.3935 69.2683C68.3888 69.6976 68.3202 70.1264 68.2849 70.5562C68.276 70.6654 68.2833 70.7756 68.2833 70.9871C69.0364 70.6654 69.7089 70.3671 70.3908 70.0932C70.606 70.0069 70.8472 69.9866 71.0764 69.9357C71.105 69.9923 71.133 70.0485 71.1611 70.1051C71.0306 70.2174 70.9137 70.353 70.7671 70.4383C70.0847 70.8348 69.409 71.2491 68.7006 71.5952C68.1648 71.8566 67.9127 72.2573 67.7688 72.8129C67.2786 74.7038 66.7142 76.5811 65.656 78.2401C65.1914 78.9682 64.5718 79.6236 63.9237 80.2016C63.2018 80.845 62.3276 80.9599 61.4326 80.4729C60.9763 80.2249 60.7315 79.8315 60.6665 79.3325C60.5558 78.4807 60.7008 77.6709 61.1296 76.9199C62.0215 75.3576 63.3052 74.1643 64.7486 73.1341C65.4268 72.6497 66.1472 72.2241 66.8587 71.7875C67.4351 71.4336 67.7251 70.6877 67.4995 69.9185ZM61.1431 78.9724C61.1431 79.0618 61.1405 79.1512 61.1436 79.2406C61.1811 80.2187 61.9913 80.713 62.8593 80.2644C63.1732 80.1023 63.4778 79.8949 63.7351 79.6532C65.6851 77.8243 66.4335 75.3883 67.0931 72.9127C67.1139 72.8337 67.0635 72.6841 67.0006 72.6492C66.9361 72.6134 66.8026 72.6555 66.722 72.7028C64.9726 73.7251 63.3442 74.8981 62.0958 76.5239C61.5438 77.2427 61.1275 78.027 61.1431 78.9724ZM67.2397 68.2476C66.4549 68.2268 65.3265 69.2595 65.2704 69.9752C65.2413 70.3494 65.4419 70.3624 65.7205 70.2543C66.4497 69.9705 67.0115 69.4741 67.4652 68.8531C67.5468 68.7418 67.5858 68.5339 67.5375 68.4134C67.4975 68.3136 67.2994 68.2772 67.2397 68.2476Z" fill="#B7A37A"/>
<path d="M5.52042 71.7863C5.1961 71.6776 4.96326 71.6392 4.77252 71.528C4.03865 71.1002 3.51371 70.4843 3.22837 69.6787C2.93056 68.8368 2.64367 67.9911 2.35053 67.1481C2.30636 67.0218 2.27985 66.8779 2.19981 66.7781C2.08911 66.6393 1.93578 66.5354 1.80065 66.4163C1.69774 66.5655 1.53143 66.7032 1.50232 66.8659C1.3017 67.9787 1.13643 69.0977 0.946201 70.2125C0.843812 70.8128 0.725831 71.4115 0.586541 72.0046C0.558475 72.1241 0.400475 72.213 0.302764 72.3164C0.207132 72.188 0.0335396 72.0617 0.0293817 71.9308C0.00599348 71.1704 -0.0246711 70.4053 0.0330199 69.6481C0.276777 66.4678 1.24349 63.4959 2.72267 60.6847C2.98566 60.1852 3.32245 59.7242 3.63273 59.2502C3.70497 59.1395 3.79229 59.0205 3.90195 58.9565C4.00486 58.8968 4.14727 58.9045 4.27253 58.8827C4.28604 59.0043 4.34581 59.1452 4.30527 59.2455C4.14883 59.6311 3.94093 59.996 3.78761 60.3832C3.15613 61.9726 2.53504 63.5661 1.91915 65.1617C1.85938 65.316 1.86146 65.4948 1.81884 65.7661C2.09794 65.6263 2.28401 65.5447 2.45864 65.4439C4.3323 64.3623 5.83954 62.8561 7.28493 61.2777C7.74802 60.7715 8.21786 60.2704 8.70382 59.786C8.82908 59.6613 9.02762 59.6098 9.24955 59.6041C7.55156 62.2943 5.43362 64.5276 2.50178 65.9694C3.51475 66.9673 3.67015 68.2609 4.18417 69.3892C4.51317 70.1127 4.96794 70.779 5.36554 71.4718C5.40036 71.5321 5.42739 71.5971 5.52042 71.7863ZM1.30274 65.1929C0.620324 67.0208 0.341744 68.9158 0.339665 70.858C0.660864 68.9698 0.981543 67.0811 1.30274 65.1929Z" fill="#B7A37A"/>
<path d="M56.1314 71.1392C55.7406 71.7239 55.226 72.1636 54.5114 72.3106C54.1585 72.3829 53.882 72.1578 53.776 71.8481C53.6138 71.3741 53.4449 70.8788 53.4205 70.3855C53.2344 66.6678 54.3435 63.3618 56.7073 60.4928C57.0051 60.1311 57.438 59.8114 57.8741 59.6482C58.7026 59.338 59.2805 59.9128 59.0326 60.7626C58.8969 61.2293 58.689 61.6856 58.4494 62.1097C57.4344 63.9039 56.3377 65.6356 54.8643 67.1122C54.568 67.409 54.449 67.9661 54.4085 68.4178C54.3258 69.3481 54.3071 70.2899 54.3456 71.2234C54.3752 71.9432 54.5956 72.016 55.2167 71.6235C55.3674 71.5279 55.5103 71.4198 55.6558 71.3153C55.7853 71.2223 55.9131 71.1267 56.0415 71.0321C56.0716 71.0679 56.1013 71.1033 56.1314 71.1392ZM54.9329 66.3492C55.0862 66.2027 55.1912 66.1252 55.2676 66.0254C55.6309 65.554 56.0368 65.106 56.3341 64.5956C57.0046 63.4434 57.6335 62.2651 58.2473 61.0812C58.3611 60.8608 58.3247 60.563 58.3637 60.2558C57.2333 60.589 54.7588 65.0177 54.9329 66.3492ZM54.7021 64.8389C54.068 65.605 53.5047 68.6621 53.8097 69.4188C53.9168 68.6325 53.9859 67.8658 54.133 67.1138C54.2827 66.3477 54.5093 65.5967 54.7021 64.8389Z" fill="#B7A37A"/>
<path d="M51.5953 90.0961C51.7726 89.9848 51.9269 89.9173 52.0444 89.8097C52.8489 89.0758 53.6436 88.331 54.4466 87.5951C54.601 87.4532 54.7782 87.3357 54.9451 87.2068C54.983 87.2411 55.0209 87.2754 55.0589 87.3097C54.9705 87.4475 54.8998 87.6013 54.7912 87.7203C53.9394 88.66 53.088 89.6002 52.2185 90.5228C51.9654 90.7915 51.6681 91.0602 51.2398 90.9022C50.8043 90.741 50.6723 90.3705 50.6161 89.9495C50.414 88.4313 50.7731 86.9859 51.2175 85.5624C51.5054 84.6414 51.889 83.75 52.2206 82.8426C52.2679 82.7126 52.2632 82.5635 52.2824 82.4231C52.1395 82.4154 51.9924 82.3805 51.8552 82.4034C51.1068 82.5266 50.3615 82.6674 49.6141 82.7932C49.4738 82.8166 49.3262 82.7963 49.1817 82.7963C49.1656 82.7579 49.1489 82.7189 49.1328 82.6799C49.2653 82.5999 49.389 82.4793 49.5325 82.446C50.2851 82.2703 51.0366 82.0739 51.8006 81.9699C52.4212 81.8857 52.9014 81.7059 53.1966 81.1015C53.3422 80.8036 53.5927 80.5266 53.8624 80.3317C54.0262 80.2137 54.3162 80.2699 54.5495 80.248C54.5459 80.4315 54.5932 80.6347 54.5298 80.7943C54.2263 81.5557 54.2164 81.563 55.0303 81.5141C55.9518 81.459 56.8717 81.3754 57.7932 81.314C57.9756 81.3021 58.1612 81.3369 58.3452 81.3504C58.3519 81.4065 58.3582 81.4622 58.3649 81.5183C58.0406 81.5853 57.7189 81.6721 57.3915 81.7153C56.3878 81.8478 55.3785 81.9419 54.3801 82.1025C54.1405 82.1409 53.8333 82.3275 53.7268 82.5339C52.653 84.6112 51.9181 86.8061 51.5735 89.1241C51.5387 89.3585 51.5491 89.6002 51.5444 89.8388C51.5428 89.8949 51.5657 89.951 51.5953 90.0961ZM52.9596 82.4117C52.2829 82.9819 50.8038 87.4812 51.02 88.2603C51.6489 86.3648 52.3053 84.3857 52.9596 82.4117Z" fill="#B7A37A"/>
<path d="M43.0464 71.4981C44.1155 70.5231 45.1846 69.5481 46.2537 68.5731C46.2964 68.6115 46.3385 68.6505 46.3811 68.689C46.2943 68.8293 46.2267 68.9868 46.1181 69.1073C45.2881 70.0252 44.4528 70.9394 43.6104 71.8464C43.4705 71.9966 43.3037 72.1374 43.1228 72.232C42.5683 72.522 42.0137 72.1021 41.9399 71.3344C41.8297 70.1946 41.9295 69.0626 42.2596 67.9738C42.6384 66.7238 43.1078 65.5009 43.5308 64.2639C43.5802 64.1189 43.5828 63.9583 43.6072 63.805C43.4664 63.8024 43.3224 63.7795 43.1857 63.8013C42.4669 63.9152 41.7502 64.0456 41.0309 64.1584C40.8672 64.1844 40.6957 64.162 40.5273 64.162C40.5143 64.1194 40.5013 64.0768 40.4883 64.0337C40.6426 63.9521 40.7887 63.831 40.9534 63.7956C41.7518 63.6241 42.5527 63.4599 43.3583 63.3247C43.8276 63.2462 44.1826 63.0664 44.4393 62.6376C44.6503 62.2852 44.9243 61.9531 45.2335 61.6855C45.3645 61.5722 45.6571 61.6465 45.8764 61.6356C45.879 61.8081 45.945 62.0139 45.8738 62.1475C45.4014 63.0363 45.656 63.0061 46.4668 62.9048C47.367 62.7925 48.2766 62.7541 49.183 62.6922C49.3503 62.6808 49.5203 62.7109 49.6887 62.7224C49.6975 62.7655 49.7064 62.8086 49.7152 62.8518C49.5983 62.9017 49.4855 62.9807 49.3639 62.9968C48.1549 63.1569 46.9455 63.3107 45.7345 63.4567C45.3775 63.4999 45.1498 63.6626 44.9871 63.9973C43.9711 66.0851 43.2231 68.256 42.8973 70.5611C42.8588 70.8324 42.8921 71.1135 42.8921 71.3906C42.9435 71.4264 42.995 71.4623 43.0464 71.4981ZM44.2871 63.7977C43.5527 64.4692 42.1613 68.8293 42.3599 69.6027C42.9789 67.7394 43.6332 65.7691 44.2871 63.7977Z" fill="#B7A37A"/>
<path d="M23.9942 69.1986C24.3871 68.8374 24.7774 68.4736 25.174 68.1165C25.4146 67.8993 25.6724 67.7428 26.0201 67.8863C26.3845 68.037 26.4645 68.3411 26.4707 68.6841C26.478 69.0905 26.4728 69.4964 26.4728 69.9029C26.5321 69.9159 26.5913 69.9283 26.6506 69.9413C26.7633 69.8192 26.8792 69.7007 26.9879 69.5749C27.4442 69.0453 27.8771 68.4928 28.3636 67.9923C28.5726 67.7782 28.875 67.6285 29.1619 67.5225C29.6697 67.3343 30.0949 67.6249 30.0523 68.1581C30.0044 68.762 29.8553 69.3571 29.7602 69.958C29.6853 70.4278 29.6131 70.8982 29.5668 71.3711C29.5502 71.5385 29.6131 71.7142 29.6396 71.8857C29.6827 71.9153 29.7259 71.9444 29.7695 71.974C30.3527 71.446 30.9358 70.9179 31.519 70.3899C31.5403 70.4101 31.5616 70.4304 31.5834 70.4502C31.0247 71.0312 30.4904 71.6378 29.8994 72.183C29.5393 72.5156 29.0372 72.2604 29.0476 71.7256C29.0653 70.8379 29.1718 69.9517 29.255 69.0661C29.2815 68.786 29.3646 68.512 29.3979 68.2324C29.4099 68.1269 29.3532 68.0136 29.3283 67.904C29.2061 67.932 29.0502 67.9216 28.9681 67.9944C28.5694 68.3499 28.1401 68.6882 27.8169 69.1066C27.3813 69.67 27.0326 70.2999 26.649 70.9028C26.5934 70.9907 26.57 71.1092 26.4967 71.1736C26.3569 71.2963 26.1922 71.3904 26.0373 71.4964C25.9624 71.3363 25.8252 71.1762 25.8237 71.0151C25.8174 70.3155 25.8621 69.6149 25.8616 68.9148C25.8611 68.7407 25.7597 68.5666 25.7046 68.3925C25.5409 68.4788 25.3252 68.5245 25.2228 68.6576C24.49 69.6129 23.7785 70.5848 23.0654 71.5551C22.9526 71.7084 22.8658 71.8815 22.7567 72.0624C22.5727 72.0031 22.4105 71.9506 22.2188 71.8888C22.2281 71.7802 22.2177 71.6585 22.252 71.551C22.8877 69.563 23.5711 67.5937 24.6329 65.7824C24.7899 65.5142 24.9791 65.2606 25.1828 65.0251C25.2727 64.9212 25.4344 64.8796 25.5638 64.8094C25.6054 64.8432 25.6475 64.877 25.6896 64.9108C25.068 66.3198 24.4463 67.7288 23.8247 69.1378C23.8814 69.1581 23.9375 69.1784 23.9942 69.1986Z" fill="#B7A37A"/>
<path d="M21.1832 69.723C21.0496 69.8026 20.9207 69.8909 20.782 69.9606C20.1027 70.301 19.4228 70.6398 18.7394 70.9714C18.4863 71.0941 18.4021 71.2365 18.4972 71.5348C18.7747 72.4075 18.4665 73.3383 17.7571 73.8965C17.0144 74.4812 15.8507 74.594 15.1064 74.1533C14.6308 73.8716 14.5009 73.4428 14.8855 73.0405C15.3642 72.5405 15.9276 72.119 16.4744 71.6887C16.7618 71.4621 17.0902 71.2874 17.4956 71.0291C17.2592 70.8602 17.1074 70.7334 16.939 70.6362C16.5783 70.4273 16.1901 70.262 15.8491 70.0266C15.4089 69.723 15.3122 69.3218 15.5367 68.8509C15.9042 68.0807 16.5622 67.6721 17.3641 67.4752C17.4832 67.4461 17.6287 67.4954 17.7555 67.5318C18.0611 67.6207 18.15 67.7787 17.9052 68.0417C17.5798 68.3909 17.2425 68.7314 16.9484 69.1056C16.4853 69.695 16.5819 69.8135 17.1646 70.2625C17.8158 70.7646 18.3782 70.6981 19.0346 70.3306C19.5517 70.0406 20.111 69.8223 20.6619 69.5978C20.8053 69.539 20.9872 69.5744 21.1515 69.5666C21.1619 69.6186 21.1728 69.6711 21.1832 69.723ZM15.6521 73.9885C16.742 74.0005 17.8215 72.9662 17.8449 72.027C17.8553 71.618 17.728 71.525 17.373 71.7058C16.624 72.0884 15.9266 72.5457 15.4177 73.2307C15.3159 73.3674 15.2202 73.6174 15.2795 73.7375C15.3528 73.8851 15.5908 73.9516 15.6521 73.9885Z" fill="#B7A37A"/>
<path d="M40.7878 68.7656C40.5492 68.961 40.3143 69.1601 40.0721 69.3503C39.0872 70.1247 38.1132 70.9142 37.1101 71.6637C36.3362 72.2411 35.4584 72.4874 34.4969 72.2307C33.3378 71.9209 32.6726 70.7479 32.9719 69.5842C33.2391 68.5432 33.8233 67.724 34.7032 67.1139C35.2063 66.7646 35.7614 66.7183 36.3222 66.9216C36.8643 67.118 37.0285 67.5354 36.8081 68.0728C36.4807 68.8695 35.777 69.1933 35.027 69.4371C34.8045 69.5093 34.5577 69.5359 34.3227 69.5327C34.0005 69.5281 33.8399 69.6793 33.8305 69.9771C33.8217 70.2572 33.8129 70.5504 33.8815 70.818C34.1102 71.7078 34.5909 72.0322 35.4693 71.7827C36.1174 71.5987 36.765 71.3305 37.3372 70.9776C38.2244 70.4319 39.0451 69.7796 39.898 69.1772C40.1604 68.9917 40.4349 68.8228 40.7036 68.6466C40.7316 68.6861 40.7597 68.7261 40.7878 68.7656ZM34.1731 69.1299C34.9501 69.0301 35.5322 68.7625 35.989 68.2672C36.1325 68.1118 36.2427 67.8924 36.2853 67.6856C36.3575 67.3348 36.106 67.144 35.7749 67.2849C34.9755 67.6248 34.4943 68.249 34.1731 69.1299Z" fill="#B7A37A"/>
<path d="M34.9141 90.6619C35.0404 89.9754 35.1537 89.2472 35.3111 88.5284C35.5606 87.3881 35.9629 86.3013 36.5788 85.3045C36.7254 85.0675 36.9151 84.845 37.1266 84.6662C37.2274 84.581 37.4275 84.6127 37.5824 84.5919C37.5824 84.7405 37.625 84.9053 37.5762 85.0352C37.2498 85.8959 36.8995 86.7473 36.5689 87.6064C36.5086 87.7628 36.5013 87.9406 36.4468 88.2311C36.6438 88.1126 36.742 88.0669 36.8241 88.0014C37.0803 87.7977 37.3054 87.5331 37.5918 87.3943C37.8194 87.2836 38.1697 87.2249 38.3724 87.3273C38.5366 87.411 38.6328 87.768 38.6344 88.0045C38.637 88.5076 38.5429 89.0107 38.5231 89.5149C38.5169 89.6723 38.6229 89.834 38.6775 89.9935C38.822 89.9338 38.9925 89.9052 39.1073 89.8096C39.4737 89.5055 39.8152 89.1718 40.1759 88.8605C40.3069 88.7467 40.4654 88.6641 40.6109 88.5674C40.6431 88.6006 40.6748 88.6339 40.7066 88.6672C40.6577 88.7607 40.6286 88.8756 40.5563 88.9447C40.0636 89.4172 39.5902 89.9171 39.0538 90.3355C38.5174 90.7539 37.9301 90.4452 37.9104 89.7617C37.8948 89.2425 37.9374 88.7217 37.9452 88.2015C37.9467 88.1121 37.9041 88.0217 37.8823 87.9317C37.7903 87.9619 37.6749 87.9671 37.6099 88.0269C36.9005 88.677 36.2799 89.3922 35.9686 90.3283C35.7706 90.9228 35.768 90.9213 35.2004 90.7721C35.1583 90.7607 35.111 90.77 35.0684 90.7607C35.0419 90.7544 35.0196 90.7305 34.9141 90.6619ZM36.296 86.8439C35.8683 87.2753 35.4354 88.8642 35.6027 89.3454C35.8382 88.4957 36.0502 87.7301 36.296 86.8439Z" fill="#B7A37A"/>
<path d="M79.9993 68.7554C79.9432 68.8172 79.8938 68.8879 79.8294 68.9388C78.6818 69.8447 77.5425 70.761 76.3793 71.6467C75.6382 72.2111 74.79 72.4762 73.8581 72.2532C72.5634 71.9429 71.8753 70.7553 72.2396 69.4809C72.5244 68.4841 73.105 67.6868 73.962 67.1031C74.4797 66.7507 75.0524 66.7097 75.6231 66.9425C76.1169 67.1437 76.2853 67.5465 76.0717 68.0298C75.6127 69.0683 74.6959 69.4383 73.6585 69.5215C73.1928 69.5584 73.0494 69.7574 73.0577 70.153C73.0634 70.4029 73.0769 70.6639 73.1502 70.8998C73.4044 71.72 73.8347 71.9622 74.6762 71.8109C75.4719 71.6685 76.1662 71.3016 76.8164 70.8432C77.5971 70.2938 78.3663 69.7283 79.1443 69.1753C79.3959 68.9965 79.6594 68.8349 79.9177 68.666C79.9447 68.6956 79.9723 68.7258 79.9993 68.7554ZM73.5005 69.127C74.2843 68.9913 74.9563 68.7018 75.4085 68.035C75.5005 67.8994 75.5701 67.6785 75.5233 67.5392C75.4797 67.4093 75.2572 67.2393 75.1325 67.2533C74.4854 67.3277 73.5805 68.3723 73.5005 69.127Z" fill="#B7A37A"/>
<path d="M58.3249 88.6318C57.9912 88.8995 57.6809 89.2061 57.3171 89.4239C56.9289 89.6572 56.5063 89.8958 56.0708 89.9722C55.3613 90.0969 54.9923 89.6536 55.2304 88.9764C55.6919 87.662 56.6378 86.7727 57.9278 86.3003C58.2209 86.1932 58.6274 86.3907 58.9798 86.4577C59.0489 86.4712 59.1055 86.5367 59.1736 86.5653C59.7349 86.8044 59.7178 86.7997 59.578 87.4213C59.3961 88.2306 59.2214 89.0429 59.0977 89.862C59.066 90.0725 59.2381 90.3137 59.3165 90.5403C59.5374 90.4452 59.8035 90.3994 59.9719 90.2461C60.8092 89.4837 61.6179 88.69 62.4433 87.9146C62.6164 87.7519 62.8175 87.6194 63.0057 87.4728C63.0441 87.5123 63.0826 87.5513 63.121 87.5908C63.0426 87.6984 62.975 87.8169 62.8835 87.9114C62.1075 88.716 61.3274 89.5174 60.5462 90.3168C60.4428 90.4233 60.3264 90.5174 60.2136 90.6146C59.8618 90.9171 59.4725 91.0637 59.0219 90.8563C58.5749 90.6499 58.4179 90.2612 58.4174 89.7981C58.4174 89.5762 58.4538 89.3542 58.4652 89.1323C58.473 88.9805 58.4668 88.8288 58.4668 88.677C58.4195 88.6619 58.3722 88.6469 58.3249 88.6318ZM58.8717 87.1703C58.8607 86.6869 58.5302 86.4546 58.1799 86.649C57.2048 87.1895 56.4543 87.9494 56.038 89.0013C55.9918 89.1193 56.0328 89.2721 56.0334 89.4088C56.1565 89.3953 56.2963 89.415 56.4003 89.3631C57.3306 88.8948 58.0962 88.2222 58.7485 87.4172C58.8192 87.3309 58.8514 87.2134 58.8717 87.1703Z" fill="#B7A37A"/>
<path d="M44.8709 88.6299C44.4727 88.9366 44.1006 89.289 43.6687 89.5358C43.2929 89.7505 42.8584 89.922 42.4333 89.9735C41.9187 90.0353 41.6864 89.75 41.7399 89.237C41.767 88.9776 41.848 88.7089 41.9681 88.4771C42.4733 87.5011 43.2571 86.8057 44.2513 86.3566C44.6765 86.1648 45.1182 86.1492 45.5221 86.4522C45.5813 86.4969 45.6473 86.5598 45.7128 86.5635C46.3329 86.5978 46.2476 86.9346 46.125 87.3774C45.9192 88.1206 45.783 88.8825 45.6182 89.6372C45.6084 89.6809 45.5881 89.7302 45.5995 89.7687C45.6801 90.0265 45.7674 90.2822 45.8526 90.5384C46.0839 90.4308 46.3594 90.3711 46.5397 90.2068C47.3895 89.435 48.2107 88.6315 49.049 87.8467C49.2018 87.7032 49.3879 87.5957 49.5589 87.472C49.5942 87.5073 49.6301 87.5432 49.6654 87.579C49.576 87.6991 49.4976 87.8301 49.3947 87.9371C48.639 88.7209 47.8781 89.5 47.1182 90.2806C47.0662 90.3336 47.0106 90.3835 46.9566 90.435C46.548 90.8243 46.0985 91.1273 45.5184 90.8388C44.9587 90.5608 44.9291 90.0296 44.966 89.487C44.9842 89.2141 44.9925 88.9407 45.0055 88.6674C44.9608 88.6549 44.9155 88.6424 44.8709 88.6299ZM42.5138 89.4043C42.6084 89.4366 42.6375 89.4568 42.6635 89.4532C42.7212 89.4454 42.7815 89.435 42.8335 89.4101C43.8288 88.9288 44.6515 88.2292 45.3085 87.3509C45.4046 87.2225 45.3386 86.8893 45.2326 86.7251C45.1687 86.6253 44.8397 86.5868 44.7051 86.6601C43.7539 87.1773 43.0221 87.9184 42.596 88.9288C42.5336 89.0769 42.5383 89.2531 42.5138 89.4043Z" fill="#B7A37A"/>
<path d="M13.8625 69.4468C13.3765 69.6256 12.9025 69.8548 12.402 69.9701C11.876 70.0912 11.5657 70.3485 11.3131 70.835C11.0813 71.282 10.6905 71.6588 10.3215 72.0169C10.1546 72.1796 9.87814 72.2747 9.63854 72.309C8.80228 72.429 8.24876 71.8277 8.35478 70.9395C8.46081 70.0528 8.80592 69.2597 9.47118 68.6661C9.75132 68.4166 10.1614 68.2425 10.5361 68.1848C11.2248 68.0783 11.6603 68.5097 11.6962 69.2113C11.7305 69.8896 11.7814 69.9338 12.4399 69.7435C12.8999 69.611 13.351 69.4478 13.8063 69.2981C13.825 69.348 13.8437 69.3974 13.8625 69.4468ZM9.89217 69.6032C9.38906 70.1495 9.2451 70.8111 9.21859 71.4951C9.20663 71.797 9.44779 71.9488 9.69519 71.7108C10.086 71.3345 10.4379 70.915 10.7788 70.492C10.8303 70.4275 10.7783 70.19 10.6988 70.1261C10.4597 69.9327 10.1832 69.7862 9.89217 69.6032ZM11.258 69.2565C11.0891 69.0263 10.9582 68.848 10.8272 68.6698C10.6681 68.8376 10.3563 69.0383 10.3838 69.1661C10.4369 69.414 10.6811 69.6209 10.8464 69.8449C10.9665 69.6723 11.087 69.5003 11.258 69.2565Z" fill="#B7A37A"/>
<path d="M63.2837 69.4535C62.7894 69.6303 62.3056 69.8491 61.7983 69.9717C61.2947 70.0939 60.9963 70.3397 60.7422 70.8106C60.4834 71.2913 60.0644 71.7103 59.6435 72.0715C59.2261 72.4301 58.7012 72.4062 58.2194 72.1364C57.7869 71.8953 57.776 71.4681 57.7849 71.0408C57.8093 69.8304 58.6762 68.5071 59.6325 68.2244C60.4724 67.9764 61.0831 68.4068 61.1346 69.2841C61.1699 69.8792 61.2001 69.9156 61.7609 69.7612C62.2551 69.6256 62.7385 69.4494 63.2271 69.2909L63.2837 69.4535ZM59.2989 69.5876C58.8254 70.1594 58.6528 70.8043 58.6414 71.4951C58.6367 71.7726 58.8306 71.9535 59.0697 71.7274C59.4823 71.3376 59.8493 70.8974 60.2095 70.4572C60.2531 70.4036 60.1762 70.1755 60.0909 70.1069C59.8643 69.9229 59.6024 69.7815 59.2989 69.5876ZM60.6907 69.2217C60.514 69.0081 60.3721 68.8371 60.2308 68.6661C60.0785 68.8252 59.8508 68.9608 59.7921 69.149C59.7058 69.425 60.0961 69.9208 60.2749 69.8231C60.4423 69.7311 60.5223 69.479 60.6907 69.2217Z" fill="#B7A37A"/>
<path d="M52.21 69.4414C51.737 69.6187 51.276 69.8489 50.7885 69.9596C50.2475 70.0823 49.9148 70.3328 49.6565 70.8427C49.4289 71.2912 49.051 71.6966 48.6545 72.0147C48.4034 72.2158 47.9928 72.3078 47.6597 72.2958C46.9944 72.2725 46.6311 71.7642 46.6971 71.0464C46.7839 70.1077 47.1228 69.259 47.8494 68.6499C48.1565 68.3926 48.6061 68.2304 49.01 68.1806C49.6035 68.1078 50.0084 68.5516 50.0411 69.1592C50.0811 69.9009 50.1206 69.9352 50.8332 69.7268C51.2776 69.5963 51.7136 69.4383 52.1533 69.2928C52.1721 69.3422 52.1913 69.3921 52.21 69.4414ZM48.2449 69.5953C47.7418 70.1332 47.6176 70.7912 47.5609 71.4554C47.5318 71.7974 47.7901 71.9331 48.0495 71.6992C48.4518 71.3364 48.7932 70.9029 49.1368 70.4809C49.1851 70.4211 49.1425 70.2018 49.0713 70.1457C48.8182 69.9456 48.5344 69.7834 48.2449 69.5953ZM49.6233 69.2185C49.4455 68.9981 49.3119 68.8328 49.1784 68.6675C49.0183 68.8359 48.7018 69.0397 48.7303 69.1655C48.787 69.4144 49.0339 69.6202 49.2017 69.8437C49.3296 69.654 49.4575 69.4643 49.6233 69.2185Z" fill="#B7A37A"/>
<path d="M33.978 88.0562C33.5471 88.2168 33.1266 88.4247 32.6823 88.526C32.0601 88.6684 31.6339 88.9397 31.3559 89.5639C31.1667 89.9875 30.7649 90.3425 30.3954 90.6538C29.9973 90.9885 29.4853 91.0816 29.0228 90.7916C28.7993 90.6512 28.5566 90.3711 28.5228 90.1263C28.3554 88.908 28.844 87.9148 29.7431 87.1196C30.094 86.8093 30.5446 86.736 31.0051 86.802C31.4681 86.8691 31.7379 87.2215 31.7899 87.7942C31.8543 88.5047 31.8855 88.5333 32.5731 88.3373C33.0232 88.2095 33.4645 88.051 33.9099 87.906C33.9327 87.9559 33.9551 88.0063 33.978 88.0562ZM29.2572 89.882C29.3502 90.105 29.3767 90.3139 29.4937 90.3966C29.5675 90.4485 29.7946 90.3394 29.9178 90.2526C30.1096 90.1169 30.293 89.9569 30.4422 89.776C31.1173 88.9558 31.1064 88.9579 30.2525 88.3561C30.0285 88.1986 29.8892 88.2402 29.7998 88.4574C29.6049 88.9319 29.4329 89.4163 29.2572 89.882ZM31.3902 87.8498C31.2119 87.6237 31.0789 87.4548 30.9458 87.2864C30.7785 87.4491 30.4495 87.6497 30.4765 87.7672C30.5357 88.0193 30.7779 88.2292 30.9453 88.4564C31.0794 88.2734 31.2135 88.0905 31.3902 87.8498Z" fill="#B7A37A"/>
<path d="M76.2679 66.0621C75.9004 66.0735 75.73 65.835 75.7305 65.533C75.7315 65.2227 75.93 65.0065 76.2809 65.0169C76.6213 65.0263 76.8115 65.2092 76.8079 65.5481C76.8048 65.8906 76.6021 66.0543 76.2679 66.0621Z" fill="#B7A37A"/>
<defs>
<clipPath id="clip0_402_995">
<rect width="44.2103" height="56.0795" fill="white" transform="translate(17.9453)"/>
</clipPath>
</defs>
</svg>
